<svg id="cafe-list" xmlns="http://www.w3.org/2000/svg" xmlns:xlink="http://www.w3.org/1999/xlink" width="25.272" height="29.836" viewBox="0 0 25.272 29.836">
  <defs>
    <clipPath id="clip-path">
      <rect id="Rectangle_83" data-name="Rectangle 83" width="25.272" height="29.836" fill="#003e69"/>
    </clipPath>
  </defs>
  <g id="Group_400" data-name="Group 400" clip-path="url(#clip-path)">
    <path id="Path_580" data-name="Path 580" d="M42.772,4.786a2.972,2.972,0,0,1-1.48.749c-.292.057-.547-.089-.8.2-.393.462.07,1.423-.333,2A1.092,1.092,0,0,1,38.21,7.3c-.251-1.775.315-3.5,2.23-3.881.243-.048.631.057.828-.188.276-.341.055-1.825.146-2.366.193-1.148,2.051-1.281,2.182.381.091,1.153.046,2.687-.824,3.54" transform="translate(-30.164 0)" fill="#003e69"/>
    <path id="Path_581" data-name="Path 581" d="M61.527,9.523a1.532,1.532,0,0,1,.285.547,10.505,10.505,0,0,1-.126,2.86,2.717,2.717,0,0,1-1.746,1.715c-.35.1-.988.055-1.186.278-.261.294-.067,1.189-.161,1.636a1.1,1.1,0,0,1-2.165-.371c-.149-1.579.452-3.156,2.124-3.531.3-.068.805.008,1-.261.339-.459-.042-1.931.216-2.579a1.109,1.109,0,0,1,1.755-.294" transform="translate(-44.595 -7.286)" fill="#003e69"/>
    <path id="Path_582" data-name="Path 582" d="M5.113,73.94A6.4,6.4,0,0,1,.867,71.165c-.5-.734-1.439-2.175-.392-2.83a3.886,3.886,0,0,1,.413-.186H4.647a9.767,9.767,0,0,1-2.229-4.126c-.566-2.328-.192-4.9-.293-7.283a1.128,1.128,0,0,1,.791-.94l17.651-.015a1.172,1.172,0,0,1,.772.559,6.648,6.648,0,0,1,.148.751c.022.023.47.1.611.154a5.124,5.124,0,0,1,3.176,3.911v1.4a4.857,4.857,0,0,1-5.241,4.326l-.8,1.175-.277.09.266-.133h3.547l.08.133c.126-.2.563.1.7.236,1.078,1.034-.793,3.308-1.555,4.02a5.119,5.119,0,0,1-3.306,1.535ZM19.284,57.965H4.314c.1,1.761-.2,3.593.166,5.325a7.478,7.478,0,0,0,3.5,4.821l7.545.034a7.431,7.431,0,0,0,3.584-4.868,33.269,33.269,0,0,0,.178-5.313m1.73,6.522a2.731,2.731,0,0,0,1.232-4.66,4.085,4.085,0,0,0-.668-.464c-.124-.038-.089.023-.1.1-.128.954.043,2.161-.067,3.2a8.431,8.431,0,0,1-.4,1.83m-.266,5.858H2.984a3.827,3.827,0,0,0,2.7,1.463c4.007-.2,8.266.263,12.244,0a3.717,3.717,0,0,0,2.824-1.467" transform="translate(0 -44.104)" fill="#003e69"/>
  </g>
</svg>
