<svg xmlns="http://www.w3.org/2000/svg" width="19.6" height="17.84" viewBox="0 0 19.6 17.84">
  <g id="camera-icon" transform="translate(1 1)">
    <path id="Path_538" data-name="Path 538" d="M2,17.08V8.28A1.76,1.76,0,0,1,3.76,6.52H4.2a1.76,1.76,0,0,0,1.408-.7l1.954-2.6A.528.528,0,0,1,7.984,3h5.632a.528.528,0,0,1,.422.211l1.954,2.6a1.76,1.76,0,0,0,1.408.7h.44A1.76,1.76,0,0,1,19.6,8.28v8.8a1.76,1.76,0,0,1-1.76,1.76H3.76A1.76,1.76,0,0,1,2,17.08Z" transform="translate(-2 -3)" fill="none" stroke="#000" stroke-linecap="round" stroke-linejoin="round" stroke-width="2"/>
    <path id="Path_539" data-name="Path 539" d="M11.52,16.04A3.52,3.52,0,1,0,8,12.52,3.52,3.52,0,0,0,11.52,16.04Z" transform="translate(-2.72 -3.72)" fill="none" stroke="#000" stroke-linecap="round" stroke-linejoin="round" stroke-width="2"/>
  </g>
</svg>
