<svg xmlns="http://www.w3.org/2000/svg" width="14.287" height="16.671" viewBox="0 0 14.287 16.671">
  <g id="edit-btn" transform="translate(-3.25 -1.25)">
    <path id="Path_574" data-name="Path 574" d="M16.137,9.586V4.844A.455.455,0,0,0,16,4.522L13.615,2.133A.455.455,0,0,0,13.294,2H4.455A.455.455,0,0,0,4,2.455V16.716a.455.455,0,0,0,.455.455H9.31" fill="none" stroke="#003e69" stroke-linecap="round" stroke-linejoin="round" stroke-width="1.5"/>
    <path id="Path_575" data-name="Path 575" d="M8,9.034h6.069M8,6h3.034M8,12.069h2.276" transform="translate(-0.966 -0.966)" fill="none" stroke="#003e69" stroke-linecap="round" stroke-linejoin="round" stroke-width="1.5"/>
    <path id="Path_576" data-name="Path 576" d="M17.106,16.619l.759-.759a.851.851,0,0,1,1.2,0h0a.851.851,0,0,1,0,1.2l-.759.759m-1.2-1.2-2.269,2.269a.758.758,0,0,0-.213.419l-.184,1.181L15.62,20.3a.759.759,0,0,0,.419-.213l2.269-2.269m-1.2-1.2,1.2,1.2" transform="translate(-2.52 -3.286)" fill="none" stroke="#003e69" stroke-linecap="round" stroke-linejoin="round" stroke-width="1.3"/>
    <path id="Path_577" data-name="Path 577" d="M16,2V4.579a.455.455,0,0,0,.455.455h2.579" transform="translate(-2.897)" fill="none" stroke="#003e69" stroke-linecap="round" stroke-linejoin="round" stroke-width="1.5"/>
  </g>
</svg>
