<svg id="favourites" xmlns="http://www.w3.org/2000/svg" xmlns:xlink="http://www.w3.org/1999/xlink" width="25.279" height="21.711" viewBox="0 0 25.279 21.711">
  <defs>
    <clipPath id="clip-path">
      <rect id="Rectangle_84" data-name="Rectangle 84" width="25.279" height="21.711" fill="#003e69"/>
    </clipPath>
  </defs>
  <g id="Group_402" data-name="Group 402" clip-path="url(#clip-path)">
    <path id="Path_583" data-name="Path 583" d="M12.867,21.71h-.492a.988.988,0,0,1-.535-.209C9.4,19.681,6.958,17.6,4.714,15.548,2.528,13.554.128,11,.013,7.974c.03-.513-.041-1.069,0-1.575A6.5,6.5,0,0,1,5.8.047,6.541,6.541,0,0,1,10.8,1.375a9.924,9.924,0,0,1,1.826,2.012A7.37,7.37,0,0,1,16.573.253a8.25,8.25,0,0,1,4.142.022,6.66,6.66,0,0,1,4.247,4.412,9.5,9.5,0,0,1,.048,4.672c-.88,3.026-3.515,5.4-5.831,7.394-1.923,1.654-3.928,3.286-5.927,4.859ZM6.455,2.032A4.514,4.514,0,0,0,2.39,5.058C.9,9.025,3.864,11.988,6.563,14.4c1.911,1.708,3.967,3.253,5.913,4.92l.2.057c2.142-1.795,4.39-3.482,6.451-5.371,1.532-1.4,3.351-3.242,3.914-5.293.774-2.817-.663-6.17-3.756-6.633C16.742,1.7,14.853,3.306,13.859,5.5c-.232.512-.3,1.254-.952,1.412-1.128.275-1.233-.777-1.574-1.51C10.42,3.43,8.745,1.912,6.455,2.032" transform="translate(0 0)" fill="#003e69"/>
  </g>
</svg>
