<svg id="free-icon" xmlns="http://www.w3.org/2000/svg" xmlns:xlink="http://www.w3.org/1999/xlink" width="123.621" height="123.619" viewBox="0 0 123.621 123.619">
  <defs>
    <clipPath id="clip-path">
      <rect id="Rectangle_100" data-name="Rectangle 100" width="123.621" height="123.619" fill="#fff"/>
    </clipPath>
  </defs>
  <g id="Group_417" data-name="Group 417" clip-path="url(#clip-path)">
    <path id="Path_592" data-name="Path 592" d="M123.525,60.235c-1.158-9.792-14.316-12.241-14.947-21.736-.443-6.685,2.468-15.247-3.24-20.648-5.551-5.251-13.673-2.44-20.288-2.879-6.373-.423-8.162-4.9-12.05-8.941C70.36,3.284,67.473.965,63.706,0H59.845C55.829.172,52.911,3.03,50.2,5.7l-3.98,4.644c-3.576,3.818-5.566,4.238-10.762,4.163q-4.522-.4-9.057-.341c-12.609.941-13.063,11.2-11.9,21.323.068,5.184-.355,7.169-4.166,10.74L5.694,50.2C3.029,52.914.169,55.829,0,59.846v3.861C1.008,67.51,3.259,70.324,6.03,73c4.043,3.9,8.518,5.672,8.941,12.053.525,7.9-3.259,18.956,6.826,22.856,8.247,3.191,16.857-2.553,23.7,3.81,5.266,4.9,8.827,12.715,17.606,11.83,9.973-1.008,12.4-14.335,21.951-14.969,7.113-.474,17,2.846,21.806-4.739,5.157-8.143-1.717-18.395,4.5-25.418,4.9-5.527,13.242-9.06,12.164-18.189m-9.874,5.518c-3.658,4.292-9.41,6.922-11.7,12.676-2.495,6.289-.331,11.821-.851,17.972-.45,5.312-4.105,4.9-8.573,4.719-8.249-.334-12.691-1.516-19.417,4.451-2.689,2.382-7.764,10.092-11.238,10.244-3.428.15-8.832-7.931-11.439-10.244-8.426-7.476-13.463-3.731-23.059-4.451-3.378-.254-4.613-.957-4.932-4.478-.687-7.515,2.4-13.627-2.362-20.805-2.9-4.374-7.024-6.376-10.184-10.085-2.764-3.245-2.766-4.707,0-7.952,3.656-4.292,9.408-6.922,11.692-12.679,2.529-6.364.285-11.993.854-18.211.474-5.218,4.526-4.654,8.813-4.478,8.1.336,12.594,1.434,19.178-4.451,2.737-2.447,7.546-9.812,11.04-10.215C65,7.36,70.493,15.658,73.114,17.981c6.646,5.9,11.006,4.789,19.178,4.451,4.509-.186,8.354-.7,8.813,4.72.522,6.185-1.668,11.622.851,17.969,2.275,5.732,8.042,8.392,11.7,12.679,2.761,3.245,2.764,4.705,0,7.952" fill="#fff"/>
    <path id="Path_593" data-name="Path 593" d="M233.185,116.425a67.6,67.6,0,0,1-8.506,4.04,4.027,4.027,0,0,1-4.166-1.269c-3.013-6.649-6.613-13.284-9.454-19.986-1.173-2.764-2.241-5.135,1-7.048a55.936,55.936,0,0,1,7.435-3.424,3.94,3.94,0,0,1,3.416,7.036c-1.1.781-2.635,1-3.743,1.816l1.347,3.387c2.561-1.04,5.817-3.457,8.206-.607,3.143,3.755-1.6,6.818-4.824,7.72l1.586,3.281c2.689-.875,4.86-3.063,7.582-.868a3.924,3.924,0,0,1,.118,5.921" transform="translate(-132.436 -55.851)" fill="#fff"/>
    <path id="Path_594" data-name="Path 594" d="M185.2,139.042a70.439,70.439,0,0,1-8.126,3.7,3.966,3.966,0,0,1-4.366-1.792c-2.759-6.313-6.006-12.432-8.769-18.738-1.122-2.558-2.853-5.109-.036-7.362a51.041,51.041,0,0,1,7.635-3.707c2.227-.8,4.49-.1,5.346,2.224,1.323,3.6-2.343,5.373-5.164,6.286a13.733,13.733,0,0,0,1.221,3.329c.617.392,3.136-1.359,4.057-1.552,3.1-.653,5.573,1.371,5.065,4.584-.452,2.858-5.411,3.852-5.527,4.374l1.436,3.141c.375.24,3.525-1.559,4.338-1.724a3.973,3.973,0,0,1,2.892,7.239" transform="translate(-102.449 -69.922)" fill="#fff"/>
    <path id="Path_595" data-name="Path 595" d="M132.648,158.343c-1.057-1.156-5.217-3.329-6.813-4.294a1.712,1.712,0,0,0-.8-.283c2.531-4.06,2.645-9.04-.73-12.657-4.71-5.048-11.613-2.757-16.652.467-2.21,1.414-2.43,3.112-1.559,5.435,2.638,7.029,7.1,14.149,9.964,21.165a3.858,3.858,0,0,0,6.206.319c2.232-2.768-.15-5.259-1.088-7.967.331-.346,6.664,4.427,8.383,4.524a4.032,4.032,0,0,0,3.088-6.709m-16.531-8.2-1.458-3.368c1.2-.522,3.846-1.535,4.292.409s-1.2,2.64-2.834,2.96" transform="translate(-66.639 -87.168)" fill="#fff"/>
    <path id="Path_596" data-name="Path 596" d="M77.667,174.822c-.4,2.558-3.8,2.981-5.507,4.354-.044.585,3.459,6.32,3.607,7.967a3.975,3.975,0,0,1-7.212,2.616L58.2,167.542a4.067,4.067,0,0,1,1.4-4.033,63.651,63.651,0,0,1,8-3.829c3.254-.791,5.788,1.1,5.247,4.526-.452,2.858-5.411,3.852-5.528,4.374l1.446,3.242c.172.128,3.349-1.521,3.963-1.7,3.109-.914,5.433,1.62,4.944,4.7" transform="translate(-36.661 -100.634)" fill="#fff"/>
  </g>
</svg>
