<svg xmlns="http://www.w3.org/2000/svg" width="25.424" height="25.372" viewBox="0 0 25.424 25.372">
  <g id="history" transform="translate(45.35 -0.65)">
    <g id="Group_424" data-name="Group 424" transform="translate(-45 1)">
      <path id="Path_584" data-name="Path 584" d="M53.366,30.623a22.486,22.486,0,0,1,3.055,0,.686.686,0,0,1-.047,1.328,21.349,21.349,0,0,1-3.008-.009.688.688,0,0,1,0-1.319" transform="translate(-42.043 -24.308)" fill="#003e69" stroke="#003e69" stroke-width="0.7"/>
      <path id="Path_585" data-name="Path 585" d="M26.48,56.975a.7.7,0,0,1,.888.545,17.681,17.681,0,0,1,.011,2.874.877.877,0,0,1-.154.35,14.133,14.133,0,0,1-1.485,1.427.637.637,0,0,1-1.023-.687c.086-.42,1.017-1.031,1.264-1.424.1-.773-.1-1.759.015-2.505a.834.834,0,0,1,.484-.58" transform="translate(-19.639 -45.285)" fill="#003e69" stroke="#003e69" stroke-width="0.7"/>
      <path id="Path_586" data-name="Path 586" d="M24.724,6.358v16.3a2.169,2.169,0,0,1-2.016,2.016H7.474a2.406,2.406,0,0,1-2.1-2.789C-1.8,20.164-1.774,10,5.338,8.15l.008-5.973A2.423,2.423,0,0,1,7.612,0H18.2a2.086,2.086,0,0,1,1.5.592q1.971,1.991,3.99,3.936a2.811,2.811,0,0,1,1.028,1.83M17.107,1.374H7.782a1.311,1.311,0,0,0-.98.98V8.095a6.949,6.949,0,1,1,0,13.889,1.2,1.2,0,0,0,1.146,1.347H22.234a1.242,1.242,0,0,0,1.146-.982V7.647H19.151A2.708,2.708,0,0,1,17.107,5.6Zm6.1,4.929L18.451,1.542v3.78a1.312,1.312,0,0,0,.98.98ZM10.927,19.052a5.592,5.592,0,1,0-9.364-2.835,5.616,5.616,0,0,0,9.364,2.835" transform="translate(0 0)" fill="#003e69" stroke="#003e69" stroke-width="0.7"/>
      <path id="Path_587" data-name="Path 587" d="M75.228,48.286l4.8-.009a.683.683,0,0,1,0,1.337H75.274a.685.685,0,0,1-.047-1.328" transform="translate(-59.424 -38.387)" fill="#003e69" stroke="#003e69" stroke-width="0.7"/>
      <path id="Path_588" data-name="Path 588" d="M75.228,83.279l4.8-.009a.683.683,0,0,1,0,1.337H75.274a.685.685,0,0,1-.047-1.328" transform="translate(-59.424 -66.211)" fill="#003e69" stroke="#003e69" stroke-width="0.7"/>
      <path id="Path_589" data-name="Path 589" d="M79.6,65.782l3.9-.009a.683.683,0,0,1,0,1.337c-1.176-.12-2.727.175-3.857,0a.685.685,0,0,1-.047-1.328" transform="translate(-62.902 -52.298)" fill="#003e69" stroke="#003e69" stroke-width="0.7"/>
    </g>
  </g>
</svg>
