<svg xmlns="http://www.w3.org/2000/svg" width="36" height="34.084" viewBox="0 0 36 34.084">
  <path id="home" d="M14,34.657H10.333A7.245,7.245,0,0,1,3,27.5V16.25a7.118,7.118,0,0,1,3.532-6.118L15.7,4.713a7.491,7.491,0,0,1,7.6,0l9.167,5.419A7.118,7.118,0,0,1,36,16.25V27.5a7.245,7.245,0,0,1-7.333,7.154H25m-11,0V27.5a5.434,5.434,0,0,1,5.5-5.365h0A5.434,5.434,0,0,1,25,27.5v7.154m-11,0H25" transform="translate(-1.5 -2.073)" fill="none" stroke="#003e69" stroke-linecap="round" stroke-linejoin="round" stroke-width="3"/>
</svg>
