<svg id="landing-bg" xmlns="http://www.w3.org/2000/svg" xmlns:xlink="http://www.w3.org/1999/xlink" width="430" height="932" viewBox="0 0 430 932">
  <defs>
    <linearGradient id="linear-gradient" x1="0.083" y1="0.686" x2="0.087" y2="0.686" gradientUnits="objectBoundingBox">
      <stop offset="0" stop-color="#36ccff"/>
      <stop offset="0.137" stop-color="#cfe1e9"/>
      <stop offset="0.358" stop-color="#b7d4e2"/>
      <stop offset="0.635" stop-color="#91bed6"/>
      <stop offset="0.955" stop-color="#5c9fc6"/>
      <stop offset="1" stop-color="#549bc4"/>
    </linearGradient>
    <linearGradient id="linear-gradient-13" x1="0.5" x2="0.5" y2="1" gradientUnits="objectBoundingBox">
      <stop offset="0" stop-color="#003e69"/>
      <stop offset="0.113" stop-color="#003e69"/>
      <stop offset="0.532" stop-color="#8825a4"/>
      <stop offset="1" stop-color="#b01db5"/>
    </linearGradient>
    <clipPath id="clip-path">
      <rect id="Rectangle_47" data-name="Rectangle 47" width="430" height="417.156" fill="url(#linear-gradient)"/>
    </clipPath>
    <clipPath id="clip-path-3">
      <rect id="Rectangle_44" data-name="Rectangle 44" width="430" height="411.154" fill="url(#linear-gradient)"/>
    </clipPath>
    <clipPath id="clip-path-4">
      <path id="Path_191" data-name="Path 191" d="M174.275,140.2C114.156,100.209,60.34,30.847,0,0V24.36C41.528,64.5,78.844,108.34,116.081,140.429c33.264,28.635,64.7,46.293,93.279,43.166,27.6-3.06,54.159-27.368,76.843-61.977-27.068,36.7-66.571,48.545-111.927,18.584" fill="url(#linear-gradient)"/>
    </clipPath>
    <clipPath id="clip-path-5">
      <path id="Path_193" data-name="Path 193" d="M36.222,0C24.45,24.019,12.6,46.188,0,65.433,13.621,46.94,25.316,24.249,36.222,0" fill="url(#linear-gradient)"/>
    </clipPath>
    <clipPath id="clip-path-6">
      <path id="Path_195" data-name="Path 195" d="M107.576,31.923V0C93.958,20.024,81.028,46.281,68.13,77.953,48.241,126.775,27.638,189.615,0,251.1,35.915,177.789,66.356,96.453,107.576,31.923" fill="url(#linear-gradient)"/>
    </clipPath>
    <clipPath id="clip-path-7">
      <rect id="Rectangle_42" data-name="Rectangle 42" width="430" height="383.116" fill="url(#linear-gradient)"/>
    </clipPath>
    <clipPath id="clip-path-8">
      <path id="Path_197" data-name="Path 197" d="M273.277,147.481c-47.884,49.2-108.845,81-177.181,69.012C65.6,211.1,32.849,204.017,0,202.135v22.53a188.053,188.053,0,0,1,24.818,14.2c53.112,35.918,99.094,91.831,149.458,125.321,30.163,19.93,57.353,24.241,79.139,12.38,22.639-12.359,41.075-39.879,57.187-71.571,34.192-67.319,57.111-141.9,79.952-197.973C403.461,75.327,416.37,49.108,430,29.067V0a230.964,230.964,0,0,0-46.676,32.115c-38.188,33.388-73.49,77.761-110.047,115.366" fill="url(#linear-gradient)"/>
    </clipPath>
    <clipPath id="clip-path-9">
      <rect id="Rectangle_43" data-name="Rectangle 43" width="430" height="386.336" fill="url(#linear-gradient)"/>
    </clipPath>
    <clipPath id="clip-path-10">
      <path id="Path_199" data-name="Path 199" d="M269.731,194.607c-29.1,38.474-60.052,63.5-95.106,65.364-35.907,1.874-75.458-19.724-127.3-39.9A239.773,239.773,0,0,0,0,206.661V227.3C62.474,259.283,115.177,328.1,174.275,367.4c30.163,19.93,57.353,24.241,79.139,12.38,22.639-12.359,41.075-39.879,57.187-71.571,34.192-67.319,57.111-141.9,79.952-197.973,12.9-31.672,25.828-57.929,39.447-77.953V0c-23.475,12.313-46.409,31.993-65.96,56.854-36.454,46.392-64.157,97.857-94.309,137.753" fill="url(#linear-gradient)"/>
    </clipPath>
    <clipPath id="clip-path-11">
      <rect id="Rectangle_45" data-name="Rectangle 45" width="430" height="327.788" fill="url(#linear-gradient)"/>
    </clipPath>
    <clipPath id="clip-path-12">
      <path id="Path_201" data-name="Path 201" d="M277.5,135.83c-48.115,11.2-99-7.125-153.041-24.9C84.159,97.682,41.774,86.448,0,89.989v76.3c27.568,29.07,55.216,58.8,83.743,86.9,48.321,46.972,93.3,77.813,133.621,74.328,38.2-3.36,74.374-40.435,103.778-87.416C364.294,171.081,397.162,93.763,430,25.013V0q-8.893,12.485-18.363,25.284c-41.676,55.962-86.8,99.475-134.135,110.546" fill="url(#linear-gradient)"/>
    </clipPath>
    <clipPath id="clip-path-13">
      <rect id="Rectangle_48" data-name="Rectangle 48" width="328.738" height="368.471" fill="none"/>
    </clipPath>
  </defs>
  <rect id="Rectangle_2" data-name="Rectangle 2" width="430" height="932" fill="url(#linear-gradient-13)"/>
  <g id="bg" transform="translate(0 514.844)" opacity="0.315">
    <g id="Group_189" data-name="Group 189" clip-path="url(#clip-path)">
      <g id="Group_188" data-name="Group 188">
        <g id="Group_187" data-name="Group 187" clip-path="url(#clip-path)">
          <g id="Group_181" data-name="Group 181" transform="translate(0 0)" style="mix-blend-mode: multiply;isolation: isolate">
            <g id="Group_180" data-name="Group 180">
              <g id="Group_179" data-name="Group 179" clip-path="url(#clip-path-3)">
                <g id="Group_164" data-name="Group 164" transform="translate(0 227.203)">
                  <g id="Group_163" data-name="Group 163" clip-path="url(#clip-path-4)">
                    <path id="Path_190" data-name="Path 190" d="M0,334.782,56.306,0,342.872,184.559,286.566,519.341Z" transform="translate(-28.335 -166.31)" fill="url(#linear-gradient)"/>
                  </g>
                </g>
                <g id="Group_166" data-name="Group 166" transform="translate(286.202 283.387)">
                  <g id="Group_165" data-name="Group 165" clip-path="url(#clip-path-5)">
                    <path id="Path_192" data-name="Path 192" d="M0,80.085,13.47,0,56.081,27.446l-13.47,80.085Z" transform="translate(-9.929 -21.05)" fill="url(#linear-gradient)"/>
                  </g>
                </g>
                <g id="Group_168" data-name="Group 168" transform="translate(322.424 32.287)">
                  <g id="Group_167" data-name="Group 167" clip-path="url(#clip-path-6)">
                    <path id="Path_194" data-name="Path 194" d="M0,289.07,48.618,0,183.785,87.052l-48.618,289.07Z" transform="translate(-38.105 -62.511)" fill="url(#linear-gradient)"/>
                  </g>
                </g>
                <g id="Group_173" data-name="Group 173" transform="translate(0 3.22)" opacity="0.5" style="mix-blend-mode: screen;isolation: isolate">
                  <g id="Group_172" data-name="Group 172">
                    <g id="Group_171" data-name="Group 171" clip-path="url(#clip-path-7)">
                      <g id="Group_170" data-name="Group 170" transform="translate(0 0)">
                        <g id="Group_169" data-name="Group 169" clip-path="url(#clip-path-8)">
                          <path id="Path_196" data-name="Path 196" d="M519.644,211.128,451.626,768.774,0,557.646,68.018,0Z" transform="translate(-44.822 -190.175)" fill="url(#linear-gradient)"/>
                        </g>
                      </g>
                    </g>
                  </g>
                </g>
                <g id="Group_178" data-name="Group 178" transform="translate(0 0)" opacity="0.5" style="mix-blend-mode: screen;isolation: isolate">
                  <g id="Group_177" data-name="Group 177">
                    <g id="Group_176" data-name="Group 176" clip-path="url(#clip-path-9)">
                      <g id="Group_175" data-name="Group 175" transform="translate(0 0)">
                        <g id="Group_174" data-name="Group 174" clip-path="url(#clip-path-10)">
                          <path id="Path_198" data-name="Path 198" d="M548.86,288.18,447.4,891.445,0,603.265,101.459,0Z" transform="translate(-59.43 -249.9)" fill="url(#linear-gradient)"/>
                        </g>
                      </g>
                    </g>
                  </g>
                </g>
              </g>
            </g>
          </g>
          <g id="Group_186" data-name="Group 186" transform="translate(0 89.368)" style="mix-blend-mode: multiply;isolation: isolate">
            <g id="Group_185" data-name="Group 185">
              <g id="Group_184" data-name="Group 184" clip-path="url(#clip-path-11)">
                <g id="Group_183" data-name="Group 183" transform="translate(0 0)">
                  <g id="Group_182" data-name="Group 182" clip-path="url(#clip-path-12)">
                    <path id="Path_200" data-name="Path 200" d="M0,600.632,277.207,0,598.391,566.779,321.184,1167.411Z" transform="translate(-84.196 -418.203)" fill="url(#linear-gradient)"/>
                  </g>
                </g>
              </g>
            </g>
          </g>
        </g>
      </g>
    </g>
  </g>
  <g id="landing-logo" transform="translate(51.309 112.373)">
    <g id="Group_192" data-name="Group 192" clip-path="url(#clip-path-13)">
      <path id="Path_202" data-name="Path 202" d="M2.573,184.846c0-23.9.135-47.808-.044-71.711C2.423,99.115,7.751,88.295,20,81.194q49.843-28.9,99.727-57.738c9.389-5.433,18.69-11.024,28.2-16.233,11.325-6.2,23.122-6.377,34.245-.022,41.628,23.787,82.978,48.059,124.6,71.849,14.433,8.248,21.108,19.678,20.9,36.653-.581,46.711-.417,93.436-.017,140.152.135,15.819-6.283,27.063-19.672,34.784Q245.959,326.4,183.934,362.166c-13.933,8.052-27.239,6.312-40.655-1.537-33.136-19.384-66.411-38.532-99.643-57.751-7.133-4.126-14.319-8.161-21.491-12.219C9.135,283.3,2.348,272.476,2.5,257.208c.246-24.119.066-48.242.07-72.362m321.554,2.626h.377q0-13.356,0-26.711c0-8.9.222-17.814-.031-26.711-.569-20.048-13.782-28.51-30.146-19.144-31.426,17.987-62.851,35.982-93.979,54.473-20.67,12.278-30.954,31.628-31.537,55.1-.869,34.943-.21,69.923-.185,104.888a29.868,29.868,0,0,0,.257,3.892c2.538,19.125,13.848,25.109,30.64,15.6,30.568-17.307,60.922-34.991,91.344-52.555,19.879-11.477,31.1-29.175,32.94-51.547,1.56-18.976.321-38.182.321-57.287M169.04,11.455c-15.185.048-25.645,2.419-35.28,7.948C103.093,37,72.35,54.467,41.823,72.308c-18.808,10.992-18.8,26.19.013,37.228,30.667,17.993,61.317,36.039,92.432,53.235,20.169,11.146,41.46,10.894,61.661-.055,24.205-13.119,47.813-27.341,71.654-41.129,8.259-4.776,16.66-9.354,24.613-14.6,12.746-8.411,13.139-21.711,1.235-31.271a51.254,51.254,0,0,0-6.539-4.233C259.293,55.537,231.6,39.759,204.1,23.639c-12.194-7.149-24.76-12.5-35.063-12.184m-8.115,264.936h-.175c0-19.122.927-38.3-.249-57.35-1.29-20.89-11.454-38.012-29.356-48.86-31.361-19.005-63.375-36.937-95.175-55.215-15.011-8.628-27.144-2.708-29.78,14.351a38.638,38.638,0,0,0-.519,5.825c-.044,34.769-.637,69.552.137,104.3.549,24.631,11.694,44.074,33.376,56.764q32.31,18.91,64.711,37.664c10.525,6.056,20.993,12.319,31.976,17.44,12.078,5.633,23.412-1.6,24.752-14.955.3-3.018.284-6.077.289-9.117q.037-25.425.012-50.85" transform="translate(-0.719 -0.719)" fill="#003e69"/>
      <path id="Path_203" data-name="Path 203" d="M164.785,368.471c-7.45,0-15.117-2.339-23.125-7.022-25.437-14.881-51.384-29.87-76.478-44.365Q53.6,310.4,42.025,303.7c-5.721-3.308-11.576-6.616-17.238-9.815l-4.239-2.4C6.564,283.58-.157,272.125,0,256.471c.171-16.81.135-33.909.1-50.446q-.022-10.949-.029-21.9,0-10.329.025-20.655c.029-16.731.058-34.031-.07-51.041-.113-15.1,6.062-26.368,18.356-33.5Q56.78,56.668,95.206,34.45L118.113,21.2q4.114-2.381,8.214-4.79c6.525-3.818,13.271-7.766,20.023-11.464,12.024-6.585,24.467-6.588,35.985-.006,20.888,11.936,42.053,24.194,62.521,36.049,20.326,11.773,41.345,23.947,62.082,35.8,15.087,8.621,22.012,20.766,21.795,38.221-.639,51.343-.344,101.849-.016,140.115.14,16.394-6.587,28.282-20.563,36.341q-21.366,12.322-42.736,24.632c-26.657,15.36-54.221,31.242-81.31,46.9a38.135,38.135,0,0,1-19.321,5.482M123.269,346.6q10.123,5.888,20.191,11.776c14.076,8.236,26.425,8.722,38.865,1.532,17.129-9.9,34.446-19.887,51.6-29.777-11.4,6.558-22.853,13.114-34.247,19.566-8.671,4.911-16.342,5.968-22.182,3.061-5.92-2.947-9.758-9.855-11.1-19.976a31.61,31.61,0,0,1-.274-4.125c-.007-10.27-.07-20.715-.131-30.816-.146-24.294-.3-49.415.318-74.118.616-24.794,11.823-44.363,32.408-56.591,31.527-18.727,63.288-36.906,94-54.487,8.113-4.644,15.943-5.313,22.046-1.889,5.441,3.053,8.991,8.98,10.263,16.971q.06-6.364.14-12.761c.2-16.243-5.965-27.063-20-35.084q-6.271-3.584-12.567-7.2.622.448,1.223.929c6.283,5.047,9.58,11.33,9.284,17.692-.293,6.271-4.076,12.115-10.653,16.455-6.155,4.063-12.656,7.771-18.943,11.357q-2.884,1.646-5.759,3.3C261.025,126.3,254.2,130.3,247.6,134.159c-16.786,9.822-34.143,19.978-51.536,29.4-20.96,11.36-42.874,11.377-63.373.048C103.218,147.325,73.693,130,45.14,113.242l-4.924-2.889c-9.816-5.76-15-12.74-14.994-20.186,0-6.186,3.595-12.042,10.445-17.132q-7.749,4.49-15.5,8.982C8.91,88.546,3.486,98.486,3.591,112.4q.061,8.073.079,16.2c.014-.093.029-.186.043-.281C5.084,119.45,9.087,113,14.984,110.169c5.968-2.867,13.283-1.991,21.157,2.534q11.643,6.692,23.31,13.342c23.684,13.528,48.175,27.516,71.9,41.894,18.422,11.163,28.869,28.548,30.21,50.274.821,13.29.621,26.832.426,39.928-.076,5.166-.155,10.49-.17,15.751h.172v14.668q0,18.983-.014,37.967v.615c0,2.84-.006,5.775-.3,8.677-.725,7.227-4.258,13.144-9.693,16.236-5.207,2.962-11.452,3.016-17.584.155-3.754-1.751-7.465-3.643-11.132-5.611M306.245,112.162a24.059,24.059,0,0,0-11.753,3.571c-30.7,17.573-62.452,35.745-93.954,54.459-19.477,11.57-30.082,30.109-30.666,53.616-.614,24.648-.462,49.742-.316,74.008.061,10.106.124,20.556.131,30.833a27.989,27.989,0,0,0,.243,3.66c1.179,8.895,4.346,14.862,9.157,17.256,4.731,2.355,11.247,1.329,18.84-2.971,23.173-13.121,46.613-26.683,69.282-39.8q11.023-6.377,22.048-12.747c19.184-11.077,30.268-28.417,32.055-50.151,1.074-13.064.807-26.505.549-39.5-.115-5.781-.234-11.758-.234-17.637v-1.778H322V160.041c0-2.811.023-5.622.045-8.434.048-5.98.1-12.165-.076-18.226-.27-9.5-3.448-16.436-8.948-19.522a13.687,13.687,0,0,0-6.78-1.7m-283.812-.078a13.511,13.511,0,0,0-5.906,1.294c-4.876,2.344-8.09,7.7-9.293,15.491a36.417,36.417,0,0,0-.5,5.555c-.013,9.965-.072,20.095-.128,29.891-.141,24.384-.288,49.6.264,74.37.543,24.371,11.476,42.965,32.5,55.266l1.495.875c20.687,12.107,42.078,24.628,63.2,36.782q2.253,1.3,4.5,2.6c8.846,5.119,17.992,10.411,27.336,14.77,5.058,2.359,10.142,2.351,14.317-.024,4.419-2.515,7.3-7.433,7.91-13.5.274-2.726.276-5.571.279-8.323v-.618q.028-18.98.014-37.961V277.453h-.175v-1.781c0-5.862.088-11.823.174-17.585.193-13.029.393-26.5-.42-39.656-1.266-20.508-11.121-36.915-28.5-47.446-23.686-14.353-48.156-28.331-71.821-41.847q-11.666-6.663-23.319-13.347c-4.287-2.463-8.32-3.707-11.932-3.707M325.046,241.768q-.086,1.211-.185,2.418c-1.886,22.95-13.583,41.257-33.824,52.944q-11.027,6.366-22.045,12.746-11.52,6.666-23.264,13.449l17.91-10.32q21.369-12.313,42.735-24.631c12.943-7.463,18.91-18.021,18.781-33.225q-.056-6.467-.108-13.382m-321.392,2.9q-.03,5.93-.088,11.836C3.42,270.747,9.549,281.175,22.3,288.39l4.238,2.395c3.8,2.147,7.688,4.343,11.565,6.557l-.537-.314C17.445,285.25,5.808,267.233,3.654,244.671m-1.8-60.544h0ZM169.188,12.5q-.41,0-.813.012h-.048c-14.773.048-25.06,2.354-34.4,7.712q-11.883,6.818-23.777,13.62C87.775,46.656,64.637,59.9,42,73.127,33.485,78.106,28.79,84.158,28.785,90.17s4.695,12.1,13.234,17.109l4.924,2.891c28.533,16.745,58.038,34.059,87.467,50.322,19.383,10.712,40.114,10.69,59.952-.061,17.342-9.4,34.673-19.539,51.434-29.346,6.607-3.865,13.438-7.862,20.176-11.758q2.88-1.666,5.777-3.311c6.238-3.558,12.688-7.237,18.746-11.235,5.6-3.7,8.819-8.545,9.056-13.648.243-5.2-2.583-10.432-7.956-14.748a50.229,50.229,0,0,0-6.315-4.081q-13.5-7.8-27.015-15.558c-18.312-10.531-37.248-21.421-55.785-32.288C188.951,16.523,177.755,12.5,169.188,12.5m-4.653-8.918a34.134,34.134,0,0,0-16.473,4.479c-5.763,3.157-11.539,6.506-17.177,9.8l1.27-.729c9.907-5.685,20.715-8.133,36.138-8.185,7.469-.227,16.719,2.411,27.559,7.834q-7.652-4.4-15.284-8.76a32.054,32.054,0,0,0-16.032-4.441" transform="translate(0 0)" fill="#003e69"/>
      <path id="Path_204" data-name="Path 204" d="M329.152,321.929c.874-12.393,5.728-22.028,15.506-28.676,7.944-5.4,15.14-1.974,16.486,7.443,1.551,10.85-7.7,27.262-17.889,31.734-8.336,3.659-14.207-1-14.1-10.5" transform="translate(-94.615 -83.558)" fill="#003e69"/>
      <path id="Path_205" data-name="Path 205" d="M329.152,321.929c.874-12.393,5.728-22.028,15.506-28.676,7.944-5.4,15.14-1.974,16.486,7.443,1.551,10.85-7.7,27.262-17.889,31.734C334.92,336.089,329.049,331.433,329.152,321.929Z" transform="translate(-94.615 -83.558)" fill="none" stroke="#003e69" stroke-width="1"/>
      <path id="Path_206" data-name="Path 206" d="M297.4,113.852a35.536,35.536,0,0,1,28.534.464c.839.377,1.663.78,2.469,1.216,6.989,3.782,6.816,11.314.185,15.581-8.86,5.7-24.743,5.3-33.409-.854-6.545-4.644-6.564-12.009.571-15.635.541-.275,1.091-.531,1.65-.772" transform="translate(-83.457 -31.932)" fill="#003e69"/>
      <path id="Path_207" data-name="Path 207" d="M297.4,113.852a35.536,35.536,0,0,1,28.534.464c.839.377,1.663.78,2.469,1.216,6.989,3.782,6.816,11.314.185,15.581-8.86,5.7-24.743,5.3-33.409-.854-6.545-4.644-6.564-12.009.571-15.635C296.293,114.349,296.843,114.093,297.4,113.852Z" transform="translate(-83.457 -31.932)" fill="none" stroke="#003e69" stroke-width="1"/>
      <path id="Path_208" data-name="Path 208" d="M147.169,127.949a35.489,35.489,0,0,1-30.979-1.127q-.877-.468-1.719-.992c-6.24-3.9-5.694-9.745.157-14.332,8.893-6.973,27.593-6.022,35.835,1.821,4.24,4.034,3.848,10.954-1.645,13.833-.54.284-1.09.548-1.65.8" transform="translate(-31.623 -30.701)" fill="#003e69"/>
      <path id="Path_209" data-name="Path 209" d="M147.169,127.949a35.489,35.489,0,0,1-30.979-1.127q-.877-.468-1.719-.992c-6.24-3.9-5.694-9.745.157-14.332,8.893-6.973,27.593-6.022,35.835,1.821,4.24,4.034,3.848,10.954-1.645,13.833C148.279,127.435,147.729,127.7,147.169,127.949Z" transform="translate(-31.623 -30.701)" fill="none" stroke="#003e69" stroke-width="1"/>
      <path id="Path_210" data-name="Path 210" d="M212.544,129.7a33.951,33.951,0,0,1-3.927-1.592c-9.051-4.4-9-12.225-.165-17.039,10.66-5.807,21.386-5.115,31.557,1.1,8.368,5.111,8.044,12.382-.842,16.527q-.379.177-.765.343a36.176,36.176,0,0,1-25.857.664" transform="translate(-58.015 -30.781)" fill="#003e69"/>
      <path id="Path_211" data-name="Path 211" d="M212.544,129.7a33.951,33.951,0,0,1-3.927-1.592c-9.051-4.4-9-12.225-.165-17.039,10.66-5.807,21.386-5.115,31.557,1.1,8.368,5.111,8.044,12.382-.842,16.527q-.379.177-.765.343A36.176,36.176,0,0,1,212.544,129.7Z" transform="translate(-58.015 -30.781)" fill="none" stroke="#003e69" stroke-width="1"/>
      <path id="Path_212" data-name="Path 212" d="M170.764,405.093c-.107,12.06-7.154,16.287-16.054,11.129-10.226-5.928-16.083-15.288-17.505-26.723-.47-3.783,1.722-9.514,4.656-11.616,2.554-1.829,8.654-1.114,11.826.768a34.4,34.4,0,0,1,17.076,26.442" transform="translate(-39.422 -108.318)" fill="#003e69"/>
      <path id="Path_213" data-name="Path 213" d="M170.764,405.093c-.107,12.06-7.154,16.287-16.054,11.129-10.226-5.928-16.083-15.288-17.505-26.723-.47-3.783,1.722-9.514,4.656-11.616,2.554-1.829,8.654-1.114,11.826.768A34.4,34.4,0,0,1,170.764,405.093Z" transform="translate(-39.422 -108.318)" fill="none" stroke="#003e69" stroke-width="1"/>
      <path id="Path_214" data-name="Path 214" d="M121.062,320.633c.079,9.87-7.218,14.366-15.7,9.553-10.818-6.14-16.729-15.744-17.637-27.906-.269-3.595,1.514-9.163,4.158-10.673,3-1.711,8.814-1.227,12.008.663,10.521,6.228,15.878,16.218,17.167,28.362" transform="translate(-25.21 -83.521)" fill="#003e69"/>
      <path id="Path_215" data-name="Path 215" d="M121.062,320.633c.079,9.87-7.218,14.366-15.7,9.553-10.818-6.14-16.729-15.744-17.637-27.906-.269-3.595,1.514-9.163,4.158-10.673,3-1.711,8.814-1.227,12.008.663C114.416,298.5,119.774,308.489,121.062,320.633Z" transform="translate(-25.21 -83.521)" fill="none" stroke="#003e69" stroke-width="1"/>
      <path id="Path_216" data-name="Path 216" d="M171.46,291.277c.347,13.88-6.228,18.4-15.27,13.087-11.337-6.667-17.837-16.775-17.681-30.292.1-8.367,6.859-12.46,14.317-8.584,11.641,6.049,17.651,16.005,18.634,25.789" transform="translate(-39.814 -75.892)" fill="#003e69"/>
      <path id="Path_217" data-name="Path 217" d="M171.46,291.277c.347,13.88-6.228,18.4-15.27,13.087-11.337-6.667-17.837-16.775-17.681-30.292.1-8.367,6.859-12.46,14.317-8.584C164.467,271.537,170.477,281.493,171.46,291.277Z" transform="translate(-39.814 -75.892)" fill="none" stroke="#003e69" stroke-width="1"/>
      <path id="Path_218" data-name="Path 218" d="M41.1,338.278c-.064-12.9,6.507-17.269,15.386-12.295,11.177,6.262,17.591,16.042,17.569,29.136-.018,9.779-6.778,13.78-15.362,9.022A34.3,34.3,0,0,1,41.1,338.278" transform="translate(-11.814 -93.129)" fill="#003e69"/>
      <path id="Path_219" data-name="Path 219" d="M41.1,338.278c-.064-12.9,6.507-17.269,15.386-12.295,11.177,6.262,17.591,16.042,17.569,29.136-.018,9.779-6.778,13.78-15.362,9.022A34.3,34.3,0,0,1,41.1,338.278Z" transform="translate(-11.814 -93.129)" fill="none" stroke="#003e69" stroke-width="1"/>
      <path id="Path_220" data-name="Path 220" d="M44.712,229.377c.047-13.4,6.887-17.812,15.9-12.421C71.55,223.494,77.7,233.511,77.568,246.53c-.09,9.024-6.7,12.906-14.723,8.732a33.225,33.225,0,0,1-18.133-25.885" transform="translate(-12.853 -61.72)" fill="#003e69"/>
      <path id="Path_221" data-name="Path 221" d="M44.712,229.377c.047-13.4,6.887-17.812,15.9-12.421C71.55,223.494,77.7,233.511,77.568,246.53c-.09,9.024-6.7,12.906-14.723,8.732A33.225,33.225,0,0,1,44.712,229.377Z" transform="translate(-12.853 -61.72)" fill="none" stroke="#003e69" stroke-width="1"/>
    </g>
  </g>
</svg>
