<svg xmlns="http://www.w3.org/2000/svg" xmlns:xlink="http://www.w3.org/1999/xlink" width="114.112" height="162.855" viewBox="0 0 114.112 162.855">
  <defs>
    <clipPath id="clip-path">
      <rect id="Rectangle_5" data-name="Rectangle 5" width="102.42" height="114.799" fill="#ebf7ff"/>
    </clipPath>
    <clipPath id="clip-path-2">
      <rect id="Rectangle_6" data-name="Rectangle 6" width="114.112" height="32.798" fill="#fff"/>
    </clipPath>
  </defs>
  <g id="login-logo" transform="translate(-104 -170.821)">
    <g id="Group_6" data-name="Group 6" transform="translate(109.651 170.821)">
      <g id="Group_5" data-name="Group 5" clip-path="url(#clip-path)">
        <path id="Path_66" data-name="Path 66" d="M2.523,59.312c0-7.447.042-14.895-.014-22.342-.033-4.368,1.627-7.739,5.442-9.952Q23.48,18.013,39.022,9.03c2.925-1.693,5.823-3.435,8.786-5.058a10.431,10.431,0,0,1,10.669-.007C71.447,11.377,84.329,18.939,97.3,26.35c4.5,2.57,6.576,6.131,6.511,11.419-.181,14.553-.13,29.11-.005,43.665a11.444,11.444,0,0,1-6.129,10.837q-19.323,11.143-38.648,22.285c-4.341,2.509-8.486,1.967-12.666-.479-10.324-6.039-20.691-12-31.044-17.992-2.222-1.285-4.461-2.543-6.7-3.807A11.073,11.073,0,0,1,2.5,81.857c.077-7.514.02-15.03.022-22.545M102.7,60.13h.117q0-4.161,0-8.322c0-2.774.069-5.55-.01-8.322-.177-6.246-4.294-8.883-9.392-5.964-9.791,5.6-19.581,11.21-29.28,16.971C57.7,58.318,54.5,64.347,54.315,71.66c-.271,10.887-.065,21.785-.058,32.678a9.3,9.3,0,0,0,.08,1.213c.791,5.958,4.314,7.823,9.546,4.86,9.523-5.392,18.981-10.9,28.459-16.374A19.676,19.676,0,0,0,102.6,77.978c.486-5.912.1-11.9.1-17.848M54.387,5.291c-4.731.015-7.99.754-10.992,2.476C33.84,13.25,24.262,18.692,14.752,24.25c-5.86,3.425-5.857,8.16,0,11.6,9.554,5.606,19.1,11.228,28.8,16.586a19.161,19.161,0,0,0,19.211-.017C70.305,48.33,77.66,43.9,85.088,39.6c2.573-1.488,5.191-2.914,7.668-4.549,3.971-2.62,4.093-6.764.385-9.743A15.968,15.968,0,0,0,91.1,23.992c-8.6-4.967-17.227-9.883-25.793-14.905-3.8-2.227-7.714-3.894-10.924-3.8M51.858,87.833H51.8c0-5.958.289-11.933-.077-17.868a18.517,18.517,0,0,0-9.146-15.223c-9.771-5.921-19.745-11.508-29.652-17.2C8.252,34.852,4.472,36.7,3.65,42.011a12.038,12.038,0,0,0-.162,1.815c-.014,10.833-.2,21.669.043,32.5a19.971,19.971,0,0,0,10.4,17.685Q24,99.9,34.091,105.742c3.279,1.887,6.54,3.838,9.962,5.434,3.763,1.755,7.294-.5,7.712-4.659.094-.94.089-1.893.09-2.84q.012-7.921,0-15.843" transform="translate(-1.945 -1.946)" fill="#ebf7ff"/>
        <path id="Path_67" data-name="Path 67" d="M51.34,114.8a14.249,14.249,0,0,1-7.2-2.188c-7.925-4.636-16.009-9.306-23.827-13.822Q16.7,96.705,13.093,94.62c-1.782-1.031-3.607-2.061-5.371-3.058L6.4,90.815C2.045,88.351-.049,84.782,0,79.9.054,74.668.043,69.34.032,64.188Q.025,60.777.023,57.366q0-3.218.008-6.435c.009-5.212.018-10.6-.022-15.9-.035-4.7,1.889-8.215,5.719-10.436Q17.69,17.655,29.662,10.733L36.8,6.6q1.282-.742,2.559-1.492c2.033-1.189,4.135-2.42,6.238-3.572a10.982,10.982,0,0,1,11.211,0c6.508,3.719,13.1,7.538,19.479,11.231,6.333,3.668,12.881,7.461,19.342,11.154,4.7,2.686,6.858,6.47,6.79,11.908-.2,16-.107,31.732-.005,43.653a12,12,0,0,1-6.407,11.322Q89.35,94.645,82.692,98.48c-8.305,4.785-16.893,9.733-25.333,14.611a11.881,11.881,0,0,1-6.02,1.708M38.4,107.984q3.154,1.834,6.291,3.669c4.386,2.566,8.233,2.717,12.108.477,5.337-3.084,10.732-6.2,16.077-9.277-3.551,2.043-7.12,4.086-10.67,6.1-2.7,1.53-5.091,1.859-6.911.954-1.844-.918-3.04-3.07-3.459-6.224a9.847,9.847,0,0,1-.085-1.285c0-3.2-.022-6.454-.041-9.6-.046-7.569-.093-15.4.1-23.092.192-7.725,3.683-13.821,10.1-17.631,9.822-5.835,19.718-11.5,29.287-16.976,2.528-1.447,4.967-1.655,6.869-.589a6.993,6.993,0,0,1,3.2,5.287q.019-1.983.044-3.976c.063-5.061-1.859-8.432-6.231-10.931q-1.954-1.117-3.915-2.243.194.14.381.289a6.787,6.787,0,0,1,2.892,5.512,6.653,6.653,0,0,1-3.319,5.127c-1.918,1.266-3.943,2.421-5.9,3.538q-.9.513-1.794,1.028c-2.1,1.213-4.224,2.457-6.281,3.661-5.23,3.06-10.637,6.224-16.056,9.161a19.707,19.707,0,0,1-19.744.015C32.158,45.9,22.959,40.5,14.064,35.281l-1.534-.9c-3.058-1.794-4.673-3.969-4.671-6.289,0-1.927,1.12-3.752,3.254-5.338l-4.828,2.8c-3.508,2.035-5.2,5.131-5.166,9.468q.019,2.515.025,5.048l.013-.087c.427-2.765,1.675-4.774,3.512-5.657,1.859-.893,4.138-.62,6.592.789q3.627,2.085,7.262,4.157c7.379,4.215,15.009,8.573,22.4,13.052a18.963,18.963,0,0,1,9.412,15.663c.256,4.14.193,8.36.133,12.44-.024,1.609-.048,3.268-.053,4.907h.054V89.9q0,5.914,0,11.829v.192c0,.885,0,1.8-.093,2.7a6.374,6.374,0,0,1-3.02,5.058,5.841,5.841,0,0,1-5.478.048c-1.17-.545-2.326-1.135-3.468-1.748M95.412,34.945a7.5,7.5,0,0,0-3.662,1.112c-9.566,5.475-19.457,11.136-29.272,16.967-6.068,3.6-9.372,9.381-9.554,16.7-.191,7.679-.144,15.5-.1,23.057.019,3.149.039,6.4.041,9.606a8.722,8.722,0,0,0,.076,1.14c.367,2.771,1.354,4.63,2.853,5.376,1.474.734,3.5.414,5.87-.926,7.22-4.088,14.523-8.313,21.585-12.4q3.434-1.987,6.869-3.972a19.228,19.228,0,0,0,9.987-15.625,121.821,121.821,0,0,0,.171-12.307c-.036-1.8-.073-3.663-.073-5.495V57.63h.118V49.862c0-.876.007-1.752.014-2.628.015-1.863.03-3.79-.024-5.678-.084-2.961-1.074-5.121-2.788-6.082a4.264,4.264,0,0,0-2.112-.529M6.989,34.921a4.209,4.209,0,0,0-1.84.4c-1.519.73-2.52,2.4-2.9,4.826A11.346,11.346,0,0,0,2.1,41.881c0,3.1-.022,6.261-.04,9.313-.044,7.6-.09,15.453.082,23.17A19.347,19.347,0,0,0,12.265,91.582l.466.273c6.445,3.772,13.11,7.673,19.692,11.46l1.4.811c2.756,1.595,5.605,3.244,8.517,4.6a4.764,4.764,0,0,0,4.461-.008,5.285,5.285,0,0,0,2.464-4.2c.085-.849.086-1.736.087-2.593v-.192q.009-5.913,0-11.827v-3.46H49.3v-.555c0-1.826.028-3.683.054-5.479.06-4.059.122-8.257-.131-12.355a17.9,17.9,0,0,0-8.879-14.782c-7.379-4.472-15-8.827-22.376-13.038q-3.635-2.076-7.265-4.158a7.609,7.609,0,0,0-3.718-1.155m94.28,40.4q-.027.377-.057.753A20.3,20.3,0,0,1,90.674,92.572q-3.436,1.983-6.868,3.971-3.589,2.077-7.248,4.19l5.58-3.215q6.658-3.836,13.314-7.674A10.846,10.846,0,0,0,101.3,79.493q-.017-2.015-.034-4.169m-100.131.9q-.009,1.847-.028,3.688a10.531,10.531,0,0,0,5.837,9.933l1.32.746c1.184.669,2.4,1.353,3.6,2.043l-.167-.1A20.517,20.517,0,0,1,1.138,76.229M.578,57.366h0ZM52.711,3.9q-.128,0-.253,0h-.015c-4.6.015-7.808.733-10.717,2.4q-3.7,2.124-7.408,4.243c-6.971,3.99-14.18,8.116-21.232,12.237-2.654,1.551-4.117,3.437-4.118,5.31s1.463,3.77,4.123,5.33l1.534.9C23.515,39.541,32.707,44.935,41.876,50a18.644,18.644,0,0,0,18.678-.019c5.4-2.928,10.8-6.088,16.024-9.143,2.058-1.2,4.187-2.45,6.286-3.663q.9-.519,1.8-1.032c1.943-1.109,3.953-2.255,5.841-3.5a5.585,5.585,0,0,0,2.822-4.252A5.718,5.718,0,0,0,90.848,23.8a15.647,15.647,0,0,0-1.967-1.271q-4.205-2.429-8.417-4.847c-5.705-3.281-11.6-6.674-17.38-10.06C58.868,5.148,55.38,3.9,52.711,3.9m-1.45-2.778a10.635,10.635,0,0,0-5.132,1.4c-1.8.983-3.6,2.027-5.351,3.054l.4-.227c3.086-1.771,6.454-2.534,11.259-2.55,2.327-.071,5.209.751,8.586,2.441Q58.634,3.861,56.257,2.5a9.987,9.987,0,0,0-4.995-1.384" transform="translate(0 0)" fill="#ebf7ff"/>
        <path id="Path_68" data-name="Path 68" d="M329.151,300.419a11.061,11.061,0,0,1,4.831-8.934c2.475-1.683,4.717-.615,5.136,2.319.483,3.38-2.4,8.494-5.573,9.887-2.6,1.14-4.426-.311-4.394-3.272" transform="translate(-256.081 -226.154)" fill="#ebf7ff"/>
        <path id="Path_69" data-name="Path 69" d="M329.151,300.419a11.061,11.061,0,0,1,4.831-8.934c2.475-1.683,4.717-.615,5.136,2.319.483,3.38-2.4,8.494-5.573,9.887C330.948,304.831,329.119,303.38,329.151,300.419Z" transform="translate(-256.081 -226.154)" fill="#fff" stroke="#fff" stroke-width="1"/>
        <path id="Path_70" data-name="Path 70" d="M292.536,111.948a11.071,11.071,0,0,1,8.89.145c.261.117.518.243.769.379,2.178,1.178,2.124,3.525.058,4.854a10.478,10.478,0,0,1-10.409-.266c-2.039-1.447-2.045-3.741.178-4.871.169-.086.34-.165.514-.24" transform="translate(-225.881 -86.426)" fill="#ebf7ff"/>
        <path id="Path_71" data-name="Path 71" d="M292.536,111.948a11.071,11.071,0,0,1,8.89.145c.261.117.518.243.769.379,2.178,1.178,2.124,3.525.058,4.854a10.478,10.478,0,0,1-10.409-.266c-2.039-1.447-2.045-3.741.178-4.871C292.191,112.1,292.362,112.023,292.536,111.948Z" transform="translate(-225.881 -86.426)" fill="#fff" stroke="#fff" stroke-width="1"/>
        <path id="Path_72" data-name="Path 72" d="M121.588,113.392a11.057,11.057,0,0,1-9.652-.351q-.273-.146-.535-.309c-1.944-1.215-1.774-3.036.049-4.465,2.771-2.172,8.6-1.876,11.165.567a2.629,2.629,0,0,1-.512,4.31c-.168.088-.34.171-.514.248" transform="translate(-85.589 -83.094)" fill="#ebf7ff"/>
        <path id="Path_73" data-name="Path 73" d="M121.588,113.392a11.057,11.057,0,0,1-9.652-.351q-.273-.146-.535-.309c-1.944-1.215-1.774-3.036.049-4.465,2.771-2.172,8.6-1.876,11.165.567a2.629,2.629,0,0,1-.512,4.31C121.934,113.232,121.763,113.314,121.588,113.392Z" transform="translate(-85.589 -83.094)" fill="#fff" stroke="#fff" stroke-width="1"/>
        <path id="Path_74" data-name="Path 74" d="M205.166,114.128a10.579,10.579,0,0,1-1.223-.5c-2.82-1.371-2.8-3.809-.051-5.309a9.31,9.31,0,0,1,9.832.342c2.607,1.592,2.506,3.858-.262,5.149q-.118.055-.238.107a11.271,11.271,0,0,1-8.056.207" transform="translate(-157.022 -83.311)" fill="#ebf7ff"/>
        <path id="Path_75" data-name="Path 75" d="M205.166,114.128a10.579,10.579,0,0,1-1.223-.5c-2.82-1.371-2.8-3.809-.051-5.309a9.31,9.31,0,0,1,9.832.342c2.607,1.592,2.506,3.858-.262,5.149q-.118.055-.238.107A11.271,11.271,0,0,1,205.166,114.128Z" transform="translate(-157.022 -83.311)" fill="#fff" stroke="#fff" stroke-width="1"/>
        <path id="Path_76" data-name="Path 76" d="M147.617,385.629c-.033,3.757-2.229,5.074-5,3.467a10.815,10.815,0,0,1-5.454-8.326,4.516,4.516,0,0,1,1.451-3.619c.8-.57,2.7-.347,3.684.239a10.716,10.716,0,0,1,5.32,8.238" transform="translate(-106.697 -293.168)" fill="#ebf7ff"/>
        <path id="Path_77" data-name="Path 77" d="M147.617,385.629c-.033,3.757-2.229,5.074-5,3.467a10.815,10.815,0,0,1-5.454-8.326,4.516,4.516,0,0,1,1.451-3.619c.8-.57,2.7-.347,3.684.239A10.716,10.716,0,0,1,147.617,385.629Z" transform="translate(-106.697 -293.168)" fill="#fff" stroke="#fff" stroke-width="1"/>
        <path id="Path_78" data-name="Path 78" d="M98.1,299.926c.025,3.075-2.249,4.476-4.89,2.976a10.439,10.439,0,0,1-5.495-8.694c-.084-1.12.472-2.855,1.3-3.325a4.4,4.4,0,0,1,3.741.207,11.053,11.053,0,0,1,5.348,8.836" transform="translate(-68.233 -226.052)" fill="#ebf7ff"/>
        <path id="Path_79" data-name="Path 79" d="M98.1,299.926c.025,3.075-2.249,4.476-4.89,2.976a10.439,10.439,0,0,1-5.495-8.694c-.084-1.12.472-2.855,1.3-3.325a4.4,4.4,0,0,1,3.741.207A11.053,11.053,0,0,1,98.1,299.926Z" transform="translate(-68.233 -226.052)" fill="#fff" stroke="#fff" stroke-width="1"/>
        <path id="Path_80" data-name="Path 80" d="M148.773,272.51c.108,4.324-1.94,5.734-4.757,4.077a10.331,10.331,0,0,1-5.509-9.438c.03-2.607,2.137-3.882,4.461-2.674a10.294,10.294,0,0,1,5.805,8.035" transform="translate(-107.758 -205.405)" fill="#ebf7ff"/>
        <path id="Path_81" data-name="Path 81" d="M148.773,272.51c.108,4.324-1.94,5.734-4.757,4.077a10.331,10.331,0,0,1-5.509-9.438c.03-2.607,2.137-3.882,4.461-2.674A10.294,10.294,0,0,1,148.773,272.51Z" transform="translate(-107.758 -205.405)" fill="#fff" stroke="#fff" stroke-width="1"/>
        <path id="Path_82" data-name="Path 82" d="M41.1,328.435c-.02-4.018,2.027-5.38,4.794-3.831a9.93,9.93,0,0,1,5.474,9.077c-.006,3.047-2.112,4.293-4.786,2.811a10.687,10.687,0,0,1-5.481-8.058" transform="translate(-31.974 -252.058)" fill="#ebf7ff"/>
        <path id="Path_83" data-name="Path 83" d="M41.1,328.435c-.02-4.018,2.027-5.38,4.794-3.831a9.93,9.93,0,0,1,5.474,9.077c-.006,3.047-2.112,4.293-4.786,2.811A10.687,10.687,0,0,1,41.1,328.435Z" transform="translate(-31.974 -252.058)" fill="#fff" stroke="#fff" stroke-width="1"/>
        <path id="Path_84" data-name="Path 84" d="M44.712,219.283c.015-4.175,2.146-5.549,4.955-3.87a10.16,10.16,0,0,1,5.282,9.214c-.028,2.812-2.087,4.021-4.587,2.72a10.351,10.351,0,0,1-5.649-8.064" transform="translate(-34.786 -167.049)" fill="#ebf7ff"/>
        <path id="Path_85" data-name="Path 85" d="M44.712,219.283c.015-4.175,2.146-5.549,4.955-3.87a10.16,10.16,0,0,1,5.282,9.214c-.028,2.812-2.087,4.021-4.587,2.72A10.351,10.351,0,0,1,44.712,219.283Z" transform="translate(-34.786 -167.049)" fill="#fff" stroke="#fff" stroke-width="1"/>
      </g>
    </g>
    <g id="Group_9" data-name="Group 9" transform="translate(104 300.878)">
      <g id="Group_8" data-name="Group 8">
        <g id="Group_7" data-name="Group 7" clip-path="url(#clip-path-2)">
          <path id="Path_86" data-name="Path 86" d="M6.691,2.521h3.661a9.879,9.879,0,0,1,2.45.265,4.508,4.508,0,0,1,1.854.993q2.166,1.854,2.166,5.638a11.067,11.067,0,0,1-.218,2.28,6.731,6.731,0,0,1-.672,1.859,5.776,5.776,0,0,1-1.164,1.481,4.813,4.813,0,0,1-1.22.8,5.517,5.517,0,0,1-1.424.426,10.832,10.832,0,0,1-1.717.123H6.747a2.292,2.292,0,0,1-1.154-.232,1.078,1.078,0,0,1-.506-.653,4.145,4.145,0,0,1-.118-1.093V4.243a1.8,1.8,0,0,1,.407-1.315,1.8,1.8,0,0,1,1.315-.407M7.779,4.744v9.413H9.907q.7,0,1.1-.038a3.413,3.413,0,0,0,.823-.189,2.241,2.241,0,0,0,.738-.426q1.409-1.192,1.41-4.106a6.049,6.049,0,0,0-.62-3.074,2.759,2.759,0,0,0-1.528-1.3,7.544,7.544,0,0,0-2.195-.279Z" transform="translate(-4.503 -2.284)" fill="#fff"/>
          <path id="Path_87" data-name="Path 87" d="M228.7,9.725a3.7,3.7,0,0,1-.326,1.433,5.17,5.17,0,0,1-1.026,1.514,5.239,5.239,0,0,1-1.788,1.206,6.429,6.429,0,0,1-2.535.464,8.867,8.867,0,0,1-2-.208,5.6,5.6,0,0,1-1.632-.648,5.5,5.5,0,0,1-1.348-1.159,6.889,6.889,0,0,1-.937-1.462,7.616,7.616,0,0,1-.582-1.726,9.4,9.4,0,0,1-.194-1.949,8.642,8.642,0,0,1,.487-3,6.4,6.4,0,0,1,1.4-2.266A6.09,6.09,0,0,1,220.348.492,6.894,6.894,0,0,1,222.95,0a6.5,6.5,0,0,1,3,.672,5.429,5.429,0,0,1,2.015,1.66,3.278,3.278,0,0,1,.7,1.868,1.217,1.217,0,0,1-.341.851,1.079,1.079,0,0,1-.823.369,1.137,1.137,0,0,1-.809-.255,3.538,3.538,0,0,1-.6-.88A4.233,4.233,0,0,0,224.8,2.743a3.154,3.154,0,0,0-1.831-.511,3.317,3.317,0,0,0-2.758,1.315,5.954,5.954,0,0,0-1.026,3.737,6.942,6.942,0,0,0,.454,2.691,3.4,3.4,0,0,0,1.287,1.6,3.549,3.549,0,0,0,1.949.53,3.421,3.421,0,0,0,2.048-.6,3.629,3.629,0,0,0,1.263-1.764,2.994,2.994,0,0,1,.445-.894,1,1,0,0,1,.851-.345,1.191,1.191,0,0,1,.861.35,1.166,1.166,0,0,1,.359.87" transform="translate(-196.033 0)" fill="#fff"/>
          <path id="Path_88" data-name="Path 88" d="M384.127,4.687H377.8V8.093h5.828a1.388,1.388,0,0,1,.96.289.981.981,0,0,1,.317.761,1.019,1.019,0,0,1-.312.771,1.355,1.355,0,0,1-.965.3H377.8v3.945h6.546a1.433,1.433,0,0,1,1,.307,1.057,1.057,0,0,1,.336.818,1.034,1.034,0,0,1-.336.8,1.432,1.432,0,0,1-1,.307H376.71a1.8,1.8,0,0,1-1.32-.407,1.817,1.817,0,0,1-.4-1.315V4.243a2.34,2.34,0,0,1,.18-.989,1.116,1.116,0,0,1,.563-.558,2.367,2.367,0,0,1,.979-.175h7.417a1.442,1.442,0,0,1,1,.3,1.007,1.007,0,0,1,.326.78,1.019,1.019,0,0,1-.326.79,1.442,1.442,0,0,1-1,.3" transform="translate(-339.793 -2.284)" fill="#fff"/>
          <path id="Path_89" data-name="Path 89" d="M560.318,4.839h-3.065V14.914a1.853,1.853,0,0,1-.388,1.291,1.3,1.3,0,0,1-1,.421,1.319,1.319,0,0,1-1.017-.426,1.84,1.84,0,0,1-.393-1.286V4.839h-3.065a1.552,1.552,0,0,1-1.069-.317,1.075,1.075,0,0,1-.35-.837,1.063,1.063,0,0,1,.364-.851,1.577,1.577,0,0,1,1.055-.312h8.93a1.573,1.573,0,0,1,1.083.322,1.084,1.084,0,0,1,.355.842,1.062,1.062,0,0,1-.36.837,1.59,1.59,0,0,1-1.078.317" transform="translate(-498.351 -2.284)" fill="#fff"/>
          <path id="Path_90" data-name="Path 90" d="M679.579,12.535l-.662-1.741h-5.638l-.662,1.779a6.218,6.218,0,0,1-.662,1.4,1.053,1.053,0,0,1-.9.364,1.318,1.318,0,0,1-.937-.388,1.187,1.187,0,0,1-.407-.88,1.958,1.958,0,0,1,.095-.587q.094-.3.312-.842l3.547-9.006.364-.932a4.719,4.719,0,0,1,.454-.9,1.849,1.849,0,0,1,.634-.582,1.944,1.944,0,0,1,.97-.222,1.965,1.965,0,0,1,.979.222,1.884,1.884,0,0,1,.634.572,4.014,4.014,0,0,1,.407.752q.166.4.421,1.074l3.623,8.949a4.5,4.5,0,0,1,.426,1.485,1.23,1.23,0,0,1-.4.885,1.322,1.322,0,0,1-.97.4,1.257,1.257,0,0,1-.568-.118,1.159,1.159,0,0,1-.4-.322,2.944,2.944,0,0,1-.345-.624q-.185-.421-.317-.742m-5.563-3.85h4.144l-2.091-5.723Z" transform="translate(-606.856)" fill="#fff"/>
          <path id="Path_91" data-name="Path 91" d="M834.505,16.39h-4.238a1.753,1.753,0,0,1-1.31-.411,1.85,1.85,0,0,1-.393-1.31V4.243a1.815,1.815,0,0,1,.4-1.32,1.784,1.784,0,0,1,1.3-.4h4.494a10.5,10.5,0,0,1,1.722.123,3.671,3.671,0,0,1,1.306.473,3.431,3.431,0,0,1,.87.743,3.282,3.282,0,0,1,.577.993,3.325,3.325,0,0,1,.2,1.149,3.189,3.189,0,0,1-2.081,3.046,3.386,3.386,0,0,1,2.734,3.387,3.807,3.807,0,0,1-.6,2.1,3.576,3.576,0,0,1-1.608,1.377,5.722,5.722,0,0,1-1.457.374,14.864,14.864,0,0,1-1.921.109M831.374,4.631V8.216h2.573a5.171,5.171,0,0,0,1.622-.2,1.55,1.55,0,0,0,.875-.757,1.706,1.706,0,0,0,.237-.889,1.38,1.38,0,0,0-.747-1.4,5.707,5.707,0,0,0-2.28-.345Zm2.923,5.6h-2.923V14.28h3.018q2.847,0,2.848-2.053A1.674,1.674,0,0,0,836.5,10.7a4.134,4.134,0,0,0-2.2-.473" transform="translate(-750.799 -2.284)" fill="#fff"/>
          <path id="Path_92" data-name="Path 92" d="M979.445,1.7V11.8h5.695a1.5,1.5,0,0,1,1.045.331,1.077,1.077,0,0,1,.364.832,1.052,1.052,0,0,1-.359.828,1.543,1.543,0,0,1-1.05.317h-6.783a1.8,1.8,0,0,1-1.32-.407,1.817,1.817,0,0,1-.4-1.315V1.7a1.857,1.857,0,0,1,.383-1.277A1.291,1.291,0,0,1,978.026,0a1.339,1.339,0,0,1,1.026.421,1.824,1.824,0,0,1,.393,1.282" transform="translate(-884.972)" fill="#fff"/>
          <path id="Path_93" data-name="Path 93" d="M1111.059,4.687h-6.329V8.093h5.828a1.388,1.388,0,0,1,.96.289.981.981,0,0,1,.317.761,1.018,1.018,0,0,1-.312.771,1.355,1.355,0,0,1-.965.3h-5.828v3.945h6.547a1.433,1.433,0,0,1,1,.307,1.057,1.057,0,0,1,.336.818,1.034,1.034,0,0,1-.336.8,1.432,1.432,0,0,1-1,.307h-7.634a1.8,1.8,0,0,1-1.32-.407,1.817,1.817,0,0,1-.4-1.315V4.243a2.339,2.339,0,0,1,.18-.989,1.117,1.117,0,0,1,.563-.558,2.367,2.367,0,0,1,.979-.175h7.417a1.441,1.441,0,0,1,1,.3,1.007,1.007,0,0,1,.327.78,1.018,1.018,0,0,1-.327.79,1.441,1.441,0,0,1-1,.3" transform="translate(-998.499 -2.284)" fill="#fff"/>
          <path id="Path_94" data-name="Path 94" d="M2.114,200.451q.239,0,.607.423a10.2,10.2,0,0,0-.588,1.939,9.611,9.611,0,0,0-.165,1.755q0,.533.037,1.158a9.62,9.62,0,0,0,.147,1.213,5.235,5.235,0,0,0,.331,1.1,2.2,2.2,0,0,0,.588.827,3.237,3.237,0,0,0,.156-.653q.083-.487.221-1.167t.349-1.489a16.2,16.2,0,0,1,.524-1.636,11.082,11.082,0,0,1,.57-1.305,7.935,7.935,0,0,1,.745-1.186,5.6,5.6,0,0,1,.937-.965,3.809,3.809,0,0,1,1.167-.643A14.918,14.918,0,0,0,6.25,202.17a19.285,19.285,0,0,0-.992,2.325,20.741,20.741,0,0,0-.625,2.178q-.239,1.057-.441,2.013a2.023,2.023,0,0,1-.358.836,1.062,1.062,0,0,1-.689.432,4.009,4.009,0,0,1-.9-.671,2.9,2.9,0,0,1-.57-.855,4.324,4.324,0,0,1-.312-1.176,14.431,14.431,0,0,1-.11-1.636q-.11.551-.184,1.213t-.184,1.277a5.531,5.531,0,0,1-.312,1.112,1.535,1.535,0,0,1-.57.735q.147-1.379.23-2.675t.285-2.619a21.1,21.1,0,0,1,.469-2.187,16.058,16.058,0,0,1,.616-1.856.886.886,0,0,1,.515-.165" transform="translate(0 -181.071)" fill="#fff"/>
          <path id="Path_95" data-name="Path 95" d="M56.668,240.563a2.422,2.422,0,0,1,1.167.3,1.534,1.534,0,0,1,.726,1.13,3.7,3.7,0,0,1-.542,1.057,4.554,4.554,0,0,1-.91.965,3.194,3.194,0,0,1-.689.414,1.76,1.76,0,0,1-.708.156.966.966,0,0,1-.4-.092.646.646,0,0,1-.313-.4,2.524,2.524,0,0,0-.221.545,1.9,1.9,0,0,0-.073.49.364.364,0,0,0,.266.345,1.669,1.669,0,0,0,.634.109,2.3,2.3,0,0,0,.79-.155,4.919,4.919,0,0,0,.846-.41,6.262,6.262,0,0,0,1.112-.839,4.337,4.337,0,0,0,.836-1.058,3.391,3.391,0,0,1-.432,1.691,3.856,3.856,0,0,1-1,1.14,4.053,4.053,0,0,1-1.158.643,3.082,3.082,0,0,1-.937.2,1.875,1.875,0,0,1-.846-.175,1.536,1.536,0,0,1-.561-.46,1.816,1.816,0,0,1-.3-.662,3.273,3.273,0,0,1-.092-.781,3.665,3.665,0,0,1,.312-1.369,6.441,6.441,0,0,1,.79-1.406,5,5,0,0,1,.836-.91,2.082,2.082,0,0,1,.873-.469M55.4,243.412a2.482,2.482,0,0,0,.634-.119,4.263,4.263,0,0,0,.8-.322,2.451,2.451,0,0,0,.6-.432.773.773,0,0,0,.248-.561q0-.221-.4-.221a1.381,1.381,0,0,0-.524.184,2.837,2.837,0,0,0-.469.349,4.021,4.021,0,0,0-.533.607q-.221.313-.349.515" transform="translate(-48.801 -217.985)" fill="#fff"/>
          <path id="Path_96" data-name="Path 96" d="M104.5,202.9a1.818,1.818,0,0,1,.744.2,5.712,5.712,0,0,1,1.131.79q-.717.055-1.2.119t-.855.119q-.368.055-.662.11t-.625.092a13.287,13.287,0,0,1-.423,1.333,4.3,4.3,0,0,0-.257,1.517,2.339,2.339,0,0,0,.018.294.726.726,0,0,0,.092.276.378.378,0,0,0,.331.221.474.474,0,0,0,.313-.156,2.493,2.493,0,0,0,.331-.4,4.467,4.467,0,0,0,.414-.818,2.252,2.252,0,0,0,.175-.8,2.492,2.492,0,0,0-.046-.487,2.635,2.635,0,0,0-.175-.524,1.485,1.485,0,0,1,.662,1.323,3.666,3.666,0,0,1-.11.873,4.5,4.5,0,0,1-.313.873,3.11,3.11,0,0,1-.7.956,1.32,1.32,0,0,1-.9.386,1.137,1.137,0,0,1-.478-.1.847.847,0,0,1-.368-.34,1.693,1.693,0,0,1-.2-.478,2.589,2.589,0,0,1-.073-.662,9.033,9.033,0,0,1,.184-1.829,8.042,8.042,0,0,1,.46-1.535,3.475,3.475,0,0,1-.45-.147,1.32,1.32,0,0,1-.423-.276,1.385,1.385,0,0,1-.312-.46,1.712,1.712,0,0,1-.119-.68,6.128,6.128,0,0,0,.855.2,5.2,5.2,0,0,0,.873.092q.478-1.029.873-1.958a11.511,11.511,0,0,0,.634-1.994,2.435,2.435,0,0,1,.294,1.121,4.967,4.967,0,0,1-.23,1.489,10.555,10.555,0,0,1-.506,1.323,3.681,3.681,0,0,0,.506-.037,3.982,3.982,0,0,1,.542-.037" transform="translate(-91.214 -180.362)" fill="#fff"/>
          <path id="Path_97" data-name="Path 97" d="M149.4,238.212a1.749,1.749,0,0,1,.754.156,2.092,2.092,0,0,1,.588.414,2.643,2.643,0,0,1,.634,1.085,4.7,4.7,0,0,1,.211,1.434q0,.165-.028.432a4.981,4.981,0,0,1-.1.588q-.074.322-.175.671a3.485,3.485,0,0,1-.266.662,3.022,3.022,0,0,1-.634.818,1.323,1.323,0,0,1-2.1-.469,2.606,2.606,0,0,1-.184-.5A2.979,2.979,0,0,1,148,242.9q-.129.258-.257.478t-.257.4a3.165,3.165,0,0,1-.616.7.884.884,0,0,1-.524.221.6.6,0,0,1-.45-.2,1.613,1.613,0,0,1-.322-.524,3.369,3.369,0,0,1-.193-.726,5.015,5.015,0,0,1-.064-.79,6.04,6.04,0,0,1,.11-1.13,6.261,6.261,0,0,1,1.36-2.822q.092,0,.23.156a.55.55,0,0,1,.138.377q-.165.46-.3.873l-.267.8a11.08,11.08,0,0,0-.312,1.213,5.789,5.789,0,0,0-.11,1.1,1.528,1.528,0,0,0,.046.4.192.192,0,0,0,.193.165.627.627,0,0,0,.358-.119,1.919,1.919,0,0,0,.34-.3,4.6,4.6,0,0,0,.5-.68,5.379,5.379,0,0,0,.331-.625q.11-.459.276-.993t.368-1.066a.491.491,0,0,1,.267.358,2.928,2.928,0,0,1,.064.671q0,.386-.046.873t-.046.91q0,.147.018.358a1.076,1.076,0,0,0,.11.4.6.6,0,0,0,.156.239.354.354,0,0,0,.248.092.669.669,0,0,0,.478-.193,1.748,1.748,0,0,0,.349-.487,3.449,3.449,0,0,0,.294-.855,3.753,3.753,0,0,0,.092-.616,4.384,4.384,0,0,0-.11-.928,2.026,2.026,0,0,0-.588-.984,3,3,0,0,0-.763-.533,6.743,6.743,0,0,0-1.167-.441,2.27,2.27,0,0,1,1.471-.46" transform="translate(-131.677 -215.854)" fill="#fff"/>
          <path id="Path_98" data-name="Path 98" d="M219.1,246.1a1.7,1.7,0,0,1-1.562-.809,2.457,2.457,0,0,1-.349-1.342,3.858,3.858,0,0,1,.276-1.314,6.283,6.283,0,0,1,.735-1.406,5.227,5.227,0,0,1,.928-1.029,1.609,1.609,0,0,1,1.039-.423,2.14,2.14,0,0,1,.873.175,2.328,2.328,0,0,1,.708.487,2.67,2.67,0,0,1,.542.845,2.774,2.774,0,0,1,.193,1.048,3.388,3.388,0,0,1-.248,1.278,4.282,4.282,0,0,1-.653,1.112,4.229,4.229,0,0,1-1.176,1,2.626,2.626,0,0,1-1.305.377m-.368-1.342a2.511,2.511,0,0,0,1.14-.257,3.361,3.361,0,0,0,.882-.625,2.988,2.988,0,0,0,.634-.9,2.169,2.169,0,0,0,.211-.864,1.233,1.233,0,0,0-.073-.423.853.853,0,0,0-.239-.349,1.068,1.068,0,0,0-.717-.22,1.378,1.378,0,0,0-.735.23,2.945,2.945,0,0,0-.68.6,4.718,4.718,0,0,0-.478.607,5.545,5.545,0,0,0-.377.652,4.988,4.988,0,0,0-.248.6,1.509,1.509,0,0,0-.092.46.44.44,0,0,0,.147.349,1.016,1.016,0,0,0,.625.147" transform="translate(-196.805 -217.274)" fill="#fff"/>
          <path id="Path_99" data-name="Path 99" d="M278.552,238.3a.606.606,0,0,1,.23.331,2.254,2.254,0,0,1,.083.7v.294q0,.147-.018.331a4.511,4.511,0,0,1,.616-.993,3.732,3.732,0,0,1,.708-.662,2.675,2.675,0,0,1,1.507-.478,1.341,1.341,0,0,1,.846.4,12.691,12.691,0,0,0-1.213.579,4.335,4.335,0,0,0-1.627,1.535,9.285,9.285,0,0,0-.634,1.195,9.064,9.064,0,0,0-.414,1.186,3.929,3.929,0,0,0-.156,1q0,.515.257.515-.147.386-.46.386-.368,0-.469-.441a4.641,4.641,0,0,1-.1-1.029,8.572,8.572,0,0,1,.055-.965q.055-.487.147-1.039.11-.625.276-1.323t.368-1.526" transform="translate(-251.642 -215.499)" fill="#fff"/>
          <path id="Path_100" data-name="Path 100" d="M311.1,180.437q.441,0,.625.533a4.607,4.607,0,0,1,.184,1.452,14.342,14.342,0,0,1-.193,2.243q-.193,1.213-.432,2.353-.147.662-.276,1.25t-.221,1.066q.533-.459.965-.891a8.75,8.75,0,0,0,.781-.892,4.8,4.8,0,0,0,.588-.974,3.808,3.808,0,0,0,.294-1.048,1.885,1.885,0,0,1,.478,1.305,2.434,2.434,0,0,1-.129.772,3.367,3.367,0,0,1-.349.735,4.1,4.1,0,0,1-.653.8,3.99,3.99,0,0,1-.763.579.884.884,0,0,1,.34.257q.156.184.34.4a4.648,4.648,0,0,0,.524.579.972.972,0,0,0,.689.267,3.041,3.041,0,0,0,.754-.221q-.644,1.361-1.305,1.36a1.2,1.2,0,0,1-.671-.248,3.734,3.734,0,0,1-.781-.8,5.3,5.3,0,0,0-.487-.524.849.849,0,0,0-.6-.211,1.556,1.556,0,0,0-.257.037,5.8,5.8,0,0,1-.23.607,3.122,3.122,0,0,1-.34.588,2.329,2.329,0,0,1-.4.441,1.476,1.476,0,0,1-.533.276q.055-.276.175-.892t.267-1.4q.147-.781.313-1.654t.312-1.682q.037-.183.12-.68t.184-1.14q.1-.643.211-1.36t.211-1.379q.1-.662.175-1.176t.092-.735" transform="translate(-280.035 -163.502)" fill="#fff"/>
          <path id="Path_101" data-name="Path 101" d="M363.4,203.133a2.043,2.043,0,0,1,.092.267.819.819,0,0,1,.018.175,2.657,2.657,0,0,1-.4,1.323,3.225,3.225,0,0,1-.469.57,1.718,1.718,0,0,1-.634.386.723.723,0,0,1-.469-.156,1.3,1.3,0,0,1-.331-.423,2.2,2.2,0,0,1-.2-.616,3.932,3.932,0,0,1-.064-.717,4.911,4.911,0,0,1,.138-1.158,8.223,8.223,0,0,1,.358-1.121,11.169,11.169,0,0,1,.542-1.085q.3-.533.616-1.029a1.1,1.1,0,0,1,.368.175,2.058,2.058,0,0,1,.441.45,14.278,14.278,0,0,0-.671,1.333,9.324,9.324,0,0,0-.414,1.13,6.918,6.918,0,0,0-.239,1.066,5.952,5.952,0,0,0-.055.7q0,.221.11.221a.638.638,0,0,0,.368-.129,1.753,1.753,0,0,0,.349-.331,2.566,2.566,0,0,0,.322-.5,4.819,4.819,0,0,0,.23-.533M363.255,199a.6.6,0,0,1-.358-.432,2.814,2.814,0,0,1-.1-.8,4.376,4.376,0,0,1,.055-.763,3.258,3.258,0,0,1,.147-.551q.092-.248.211-.505t.248-.625a.611.611,0,0,1,.561.34,1.415,1.415,0,0,1,.193.708,1.962,1.962,0,0,1-.12.689,6.469,6.469,0,0,1-.276.634l-.312.625a3.307,3.307,0,0,0-.248.68" transform="translate(-327.063 -176.989)" fill="#fff"/>
          <path id="Path_102" data-name="Path 102" d="M386.119,235.1a.778.778,0,0,1,.618.257,1.469,1.469,0,0,1,.309.708,5.457,5.457,0,0,1,.084,1q0,.57-.056,1.158a7.756,7.756,0,0,1-.206,1.176,8.925,8.925,0,0,1-.318.974,5.541,5.541,0,0,1-.449.9,1.209,1.209,0,0,1-.377-.312,2.454,2.454,0,0,1-.358-.533q.147-.478.276-.891t.221-.836a10.29,10.29,0,0,0,.175-1.057,11.139,11.139,0,0,0,.064-1.259c0-.159-.049-.239-.145-.239a.527.527,0,0,0-.282.1,1.5,1.5,0,0,0-.3.267,4.251,4.251,0,0,0-.282.358,1.817,1.817,0,0,0-.209.377q-.091.221-.182.432a4.59,4.59,0,0,0-.181.524q-.074.22-.147.515t-.165.689q-.092.4-.211.928t-.285,1.25a1.094,1.094,0,0,1-.423-.156,2.454,2.454,0,0,1-.5-.4q.055-.423.193-1.039t.294-1.287q.156-.671.266-1.323a7.073,7.073,0,0,0,.11-1.167,1.95,1.95,0,0,0-.266-.827,2.335,2.335,0,0,0-.91-.9,2.289,2.289,0,0,1,1.553.579,1.861,1.861,0,0,1,.4,1.241,2.642,2.642,0,0,1,.682-.919,1.587,1.587,0,0,1,1.009-.294" transform="translate(-346.581 -212.483)" fill="#fff"/>
          <path id="Path_103" data-name="Path 103" d="M427.691,247.234a1.382,1.382,0,0,1-1.1-.467,1.852,1.852,0,0,1-.4-1.255,3.8,3.8,0,0,1,.294-1.438,5.266,5.266,0,0,1,1.93-2.337,4.18,4.18,0,0,1,1.36-.586q.221.037.487.092a2.691,2.691,0,0,1,.487.147q.018.221.028.625t.009.68q0,.662-.037,1.415t-.11,1.5q-.074.744-.156,1.434t-.156,1.259a5.233,5.233,0,0,1-.266,1.066,3.389,3.389,0,0,1-.432.809,2.579,2.579,0,0,1-1.167.873,4.837,4.837,0,0,1-1.7.267,1.51,1.51,0,0,1-.57-.129,1.891,1.891,0,0,1-.57-.37,1.71,1.71,0,0,1-.322-.444,1.232,1.232,0,0,1-.119-.555,1.787,1.787,0,0,1,.276-.961,1.935,1.935,0,0,1,.937-.721q-.184.294-.285.5a2.818,2.818,0,0,0-.156.368,1.594,1.594,0,0,0-.074.331,3.344,3.344,0,0,0-.018.368q0,.165.276.276a2.021,2.021,0,0,0,.368.092,3.6,3.6,0,0,0,.57.037,2.036,2.036,0,0,0,1.112-.276,2.223,2.223,0,0,0,.726-.79,5.348,5.348,0,0,0,.524-1.443q.193-.855.377-1.921a2.913,2.913,0,0,1-.4.607,3.61,3.61,0,0,1-.5.478,2.012,2.012,0,0,1-1.213.478m-.294-1.048a1.16,1.16,0,0,0,.542-.165,4.807,4.807,0,0,0,.616-.4,5,5,0,0,0,.533-.46,3.8,3.8,0,0,0,.386-.441,1.937,1.937,0,0,0,.359-.726,3.622,3.622,0,0,0,.064-.708q0-.937-.184-.938a1.325,1.325,0,0,0-.726.359,6.333,6.333,0,0,0-.873.855,9.088,9.088,0,0,0-.846,1.186,2.119,2.119,0,0,0-.368,1,.569.569,0,0,0,.092.285q.092.156.4.156" transform="translate(-385.268 -218.517)" fill="#fff"/>
          <path id="Path_104" data-name="Path 104" d="M529.918,188.075a1.264,1.264,0,0,1,1.066.478,2.228,2.228,0,0,1,.368,1.379,4.06,4.06,0,0,1-.221,1.36,4.9,4.9,0,0,1-.588,1.158,5.2,5.2,0,0,1-1.14,1.149,7.375,7.375,0,0,1-1.36.8,4.086,4.086,0,0,0,.414.083l.469.064q.276.037.7.073t1.121.092a5.051,5.051,0,0,1-.478.368,2.166,2.166,0,0,1-.441.23,2.27,2.27,0,0,1-.478.119,4.311,4.311,0,0,1-.607.037q-.478,0-1.195-.055-.018.239-.046.671t-.074.965q-.046.533-.1,1.112t-.11,1.13q-.055.551-.11,1.02t-.092.781a4.962,4.962,0,0,1-.267.938,3.48,3.48,0,0,1-.689,1.1q-.037-.184-.055-.349t-.037-.294v-.827q0-.68.046-1.553t.119-1.765q.073-.891.147-1.691t.129-1.314a1.909,1.909,0,0,1-.937-.23.586.586,0,0,1-.221-.487.814.814,0,0,1,.257-.68.441.441,0,0,0,.377.257,3.757,3.757,0,0,0,.671.055q.055-.441.175-.983t.285-1.14q.165-.6.386-1.186a10.37,10.37,0,0,1,.5-1.121,4.679,4.679,0,0,1,.9-1.25,1.589,1.589,0,0,1,1.121-.5m.184,1.158a1.257,1.257,0,0,0-.818.276,2.336,2.336,0,0,0-.579.717,4.676,4.676,0,0,0-.34.855q-.138.469-.239.956t-.174.937q-.074.451-.147.8a9.948,9.948,0,0,0,1.287-.855,5.821,5.821,0,0,0,.974-.965,3.528,3.528,0,0,0,.487-.91,3.053,3.053,0,0,0,.175-1.039,1.217,1.217,0,0,0-.119-.515.5.5,0,0,0-.505-.257" transform="translate(-475.951 -170.423)" fill="#fff"/>
          <path id="Path_105" data-name="Path 105" d="M570.247,246.1a1.7,1.7,0,0,1-1.562-.809,2.457,2.457,0,0,1-.349-1.342,3.856,3.856,0,0,1,.276-1.314,6.28,6.28,0,0,1,.735-1.406,5.227,5.227,0,0,1,.928-1.029,1.609,1.609,0,0,1,1.039-.423,2.14,2.14,0,0,1,.873.175,2.327,2.327,0,0,1,.708.487,2.668,2.668,0,0,1,.542.845,2.772,2.772,0,0,1,.193,1.048,3.387,3.387,0,0,1-.248,1.278,4.282,4.282,0,0,1-.653,1.112,4.229,4.229,0,0,1-1.176,1,2.626,2.626,0,0,1-1.305.377m-.368-1.342a2.511,2.511,0,0,0,1.14-.257,3.362,3.362,0,0,0,.882-.625,2.988,2.988,0,0,0,.634-.9,2.17,2.17,0,0,0,.211-.864,1.234,1.234,0,0,0-.073-.423.854.854,0,0,0-.239-.349,1.068,1.068,0,0,0-.717-.22,1.378,1.378,0,0,0-.735.23,2.943,2.943,0,0,0-.68.6,4.72,4.72,0,0,0-.478.607,5.552,5.552,0,0,0-.377.652,4.991,4.991,0,0,0-.248.6,1.511,1.511,0,0,0-.092.46.44.44,0,0,0,.147.349,1.016,1.016,0,0,0,.625.147" transform="translate(-514.994 -217.274)" fill="#fff"/>
          <path id="Path_106" data-name="Path 106" d="M629.7,238.3a.605.605,0,0,1,.23.331,2.252,2.252,0,0,1,.083.7v.294q0,.147-.018.331a4.508,4.508,0,0,1,.616-.993,3.731,3.731,0,0,1,.708-.662,2.675,2.675,0,0,1,1.507-.478,1.342,1.342,0,0,1,.846.4,12.69,12.69,0,0,0-1.213.579,4.334,4.334,0,0,0-1.627,1.535,9.282,9.282,0,0,0-.634,1.195,9.055,9.055,0,0,0-.414,1.186,3.923,3.923,0,0,0-.156,1q0,.515.257.515-.147.386-.46.386-.368,0-.469-.441a4.646,4.646,0,0,1-.1-1.029,8.551,8.551,0,0,1,.055-.965q.055-.487.147-1.039.11-.625.276-1.323t.368-1.526" transform="translate(-569.831 -215.499)" fill="#fff"/>
          <path id="Path_107" data-name="Path 107" d="M693.313,240.954a1.227,1.227,0,0,1,.551.11.919.919,0,0,1,.349.294,1.21,1.21,0,0,1,.184.414,2.011,2.011,0,0,1,.055.469,1.274,1.274,0,0,0-.294-.055,2.741,2.741,0,0,0-.882.156,3.617,3.617,0,0,0-.846.414,2.889,2.889,0,0,0-.7.625,1.089,1.089,0,0,0-.276.662.8.8,0,0,0,.23.423,7.177,7.177,0,0,0,.579.607q.4.386.855.781t.763.708a6.062,6.062,0,0,1-1.158.745,8.6,8.6,0,0,1-1.1.45,4.468,4.468,0,0,1-.781.2,3.929,3.929,0,0,1-.561.055.6.6,0,0,1-.524-.285,1.048,1.048,0,0,1-.193-.6,1.141,1.141,0,0,1,.129-.616.573.573,0,0,1,.331-.248.883.883,0,0,0-.018.2q0,.2.184.2.257,0,.533-.018a2.53,2.53,0,0,0,.533-.092,4.355,4.355,0,0,0,1.011-.386,2.3,2.3,0,0,1-.552-.358,3.2,3.2,0,0,1-.423-.45,2.546,2.546,0,0,1-.515-1.581,2.3,2.3,0,0,1,.3-1.121,4.035,4.035,0,0,1,.745-.974,3.826,3.826,0,0,1,.745-.533,1.566,1.566,0,0,1,.745-.2" transform="translate(-624.844 -218.339)" fill="#fff"/>
          <path id="Path_108" data-name="Path 108" d="M738.283,246.1a1.7,1.7,0,0,1-1.562-.809,2.457,2.457,0,0,1-.349-1.342,3.856,3.856,0,0,1,.276-1.314,6.276,6.276,0,0,1,.735-1.406,5.222,5.222,0,0,1,.928-1.029,1.608,1.608,0,0,1,1.039-.423,2.14,2.14,0,0,1,.873.175,2.327,2.327,0,0,1,.708.487,2.668,2.668,0,0,1,.542.845,2.771,2.771,0,0,1,.193,1.048,3.388,3.388,0,0,1-.248,1.278,4.284,4.284,0,0,1-.653,1.112,4.23,4.23,0,0,1-1.176,1,2.626,2.626,0,0,1-1.305.377m-.368-1.342a2.511,2.511,0,0,0,1.14-.257,3.362,3.362,0,0,0,.882-.625,2.989,2.989,0,0,0,.634-.9,2.169,2.169,0,0,0,.211-.864,1.234,1.234,0,0,0-.073-.423.855.855,0,0,0-.239-.349,1.068,1.068,0,0,0-.717-.22,1.378,1.378,0,0,0-.735.23,2.944,2.944,0,0,0-.68.6,4.724,4.724,0,0,0-.478.607,5.552,5.552,0,0,0-.377.652,4.981,4.981,0,0,0-.248.6,1.511,1.511,0,0,0-.092.46.44.44,0,0,0,.147.349,1.016,1.016,0,0,0,.625.147" transform="translate(-667.258 -217.274)" fill="#fff"/>
          <path id="Path_109" data-name="Path 109" d="M801.149,190.087a2.514,2.514,0,0,1-.285,1.342.819.819,0,0,1-.689.441.757.757,0,0,1-.744-.377,2.621,2.621,0,0,1-.193-1.149,10.414,10.414,0,0,1,.119-1.323q.119-.864.487-2.353.221-.882.542-1.856t.634-2.04q.2-.7.386-1.434t.331-1.489a5.356,5.356,0,0,1,.285.827,3.332,3.332,0,0,1,.1.809,6.691,6.691,0,0,1-.2,1.516q-.2.855-.588,2.16-.533,1.82-.809,3.254a12.561,12.561,0,0,0-.276,2.169q.037.221.184.221a.391.391,0,0,0,.239-.083,1.051,1.051,0,0,0,.2-.2,1.78,1.78,0,0,0,.156-.239,1.569,1.569,0,0,1,.12-.193" transform="translate(-724.224 -162.969)" fill="#fff"/>
          <path id="Path_110" data-name="Path 110" d="M822.5,246.1a1.7,1.7,0,0,1-1.562-.809,2.458,2.458,0,0,1-.349-1.342,3.855,3.855,0,0,1,.276-1.314,6.286,6.286,0,0,1,.735-1.406,5.224,5.224,0,0,1,.928-1.029,1.609,1.609,0,0,1,1.038-.423,2.14,2.14,0,0,1,.873.175,2.328,2.328,0,0,1,.708.487,2.67,2.67,0,0,1,.542.845,2.773,2.773,0,0,1,.193,1.048,3.386,3.386,0,0,1-.248,1.278,4.28,4.28,0,0,1-.653,1.112,4.23,4.23,0,0,1-1.176,1,2.626,2.626,0,0,1-1.305.377m-.368-1.342a2.511,2.511,0,0,0,1.14-.257,3.362,3.362,0,0,0,.882-.625,2.987,2.987,0,0,0,.634-.9,2.17,2.17,0,0,0,.211-.864,1.234,1.234,0,0,0-.074-.423.853.853,0,0,0-.239-.349,1.068,1.068,0,0,0-.717-.22,1.378,1.378,0,0,0-.735.23,2.948,2.948,0,0,0-.68.6,4.724,4.724,0,0,0-.478.607,5.57,5.57,0,0,0-.377.652,4.96,4.96,0,0,0-.248.6,1.511,1.511,0,0,0-.092.46.44.44,0,0,0,.147.349,1.016,1.016,0,0,0,.625.147" transform="translate(-743.568 -217.274)" fill="#fff"/>
          <path id="Path_111" data-name="Path 111" d="M911.092,240.954a1.228,1.228,0,0,1,.551.11.92.92,0,0,1,.349.294,1.209,1.209,0,0,1,.184.414,2.005,2.005,0,0,1,.055.469,1.273,1.273,0,0,0-.294-.055,2.741,2.741,0,0,0-.882.156,3.616,3.616,0,0,0-.846.414,2.887,2.887,0,0,0-.7.625,1.089,1.089,0,0,0-.276.662.8.8,0,0,0,.23.423,7.187,7.187,0,0,0,.579.607q.4.386.855.781t.763.708a6.065,6.065,0,0,1-1.158.745,8.6,8.6,0,0,1-1.1.45,4.468,4.468,0,0,1-.781.2,3.929,3.929,0,0,1-.561.055.6.6,0,0,1-.524-.285,1.049,1.049,0,0,1-.193-.6,1.14,1.14,0,0,1,.129-.616.573.573,0,0,1,.331-.248.879.879,0,0,0-.018.2q0,.2.184.2.257,0,.533-.018a2.528,2.528,0,0,0,.533-.092,4.353,4.353,0,0,0,1.011-.386,2.3,2.3,0,0,1-.552-.358,3.2,3.2,0,0,1-.423-.45,2.546,2.546,0,0,1-.515-1.581,2.3,2.3,0,0,1,.3-1.121,4.032,4.032,0,0,1,.745-.974,3.824,3.824,0,0,1,.744-.533,1.567,1.567,0,0,1,.745-.2" transform="translate(-822.183 -218.339)" fill="#fff"/>
          <path id="Path_112" data-name="Path 112" d="M951.088,240.563a2.422,2.422,0,0,1,1.167.3,1.534,1.534,0,0,1,.726,1.13,3.691,3.691,0,0,1-.542,1.057,4.548,4.548,0,0,1-.91.965,3.2,3.2,0,0,1-.689.414,1.76,1.76,0,0,1-.708.156.966.966,0,0,1-.4-.092.646.646,0,0,1-.313-.4,2.521,2.521,0,0,0-.221.545,1.9,1.9,0,0,0-.074.49.364.364,0,0,0,.267.345,1.668,1.668,0,0,0,.634.109,2.3,2.3,0,0,0,.79-.155,4.917,4.917,0,0,0,.846-.41,6.259,6.259,0,0,0,1.112-.839,4.338,4.338,0,0,0,.836-1.058,3.391,3.391,0,0,1-.432,1.691,3.855,3.855,0,0,1-1,1.14,4.052,4.052,0,0,1-1.158.643,3.082,3.082,0,0,1-.937.2,1.876,1.876,0,0,1-.846-.175,1.535,1.535,0,0,1-.561-.46,1.815,1.815,0,0,1-.3-.662,3.274,3.274,0,0,1-.092-.781,3.66,3.66,0,0,1,.313-1.369,6.436,6.436,0,0,1,.79-1.406,5,5,0,0,1,.836-.91,2.082,2.082,0,0,1,.873-.469m-1.268,2.849a2.482,2.482,0,0,0,.634-.119,4.264,4.264,0,0,0,.8-.322,2.45,2.45,0,0,0,.6-.432.774.774,0,0,0,.248-.561q0-.221-.4-.221a1.381,1.381,0,0,0-.524.184,2.844,2.844,0,0,0-.469.349,4.024,4.024,0,0,0-.533.607q-.221.313-.349.515" transform="translate(-859.275 -217.985)" fill="#fff"/>
          <path id="Path_113" data-name="Path 113" d="M1002.567,240.758a1.771,1.771,0,0,1,.855.377,1.575,1.575,0,0,1,.524.818q-.294.478-.579,1.038t-.487,1.075q-.147.368-.23.653a1.8,1.8,0,0,0-.083.487.92.92,0,0,0,.349.671,1.441,1.441,0,0,0,1.011.322,1.433,1.433,0,0,1-.432.735.834.834,0,0,1-.487.2,1.09,1.09,0,0,1-.873-.331,1.619,1.619,0,0,1-.285-1.066,3.539,3.539,0,0,1,.055-.57,4.45,4.45,0,0,1-.984,1.333,1.571,1.571,0,0,1-1,.45.622.622,0,0,1-.414-.147,1.091,1.091,0,0,1-.285-.386,2.264,2.264,0,0,1-.165-.524,2.857,2.857,0,0,1-.055-.542,3.433,3.433,0,0,1,.34-1.489,6.028,6.028,0,0,1,.855-1.323,7.008,7.008,0,0,1,1.195-1.112,5.169,5.169,0,0,1,1.176-.671m.257,1.268q-.5.313-.956.662a8.09,8.09,0,0,0-.827.717,6.924,6.924,0,0,0-1.039,1.3,2.543,2.543,0,0,0-.414,1.222,2.863,2.863,0,0,0,1.369-.8,7.59,7.59,0,0,0,1-1.277,8.631,8.631,0,0,0,.542-1.048q.211-.5.322-.772" transform="translate(-905.239 -218.161)" fill="#fff"/>
          <path id="Path_114" data-name="Path 114" d="M1047.1,202.9a1.818,1.818,0,0,1,.744.2,5.713,5.713,0,0,1,1.13.79q-.717.055-1.2.119t-.855.119q-.368.055-.662.11t-.625.092a13.272,13.272,0,0,1-.423,1.333,4.3,4.3,0,0,0-.257,1.517,2.328,2.328,0,0,0,.018.294.726.726,0,0,0,.092.276.378.378,0,0,0,.331.221.474.474,0,0,0,.313-.156,2.5,2.5,0,0,0,.331-.4,4.456,4.456,0,0,0,.413-.818,2.251,2.251,0,0,0,.175-.8,2.5,2.5,0,0,0-.046-.487,2.625,2.625,0,0,0-.175-.524,1.485,1.485,0,0,1,.662,1.323,3.654,3.654,0,0,1-.11.873,4.5,4.5,0,0,1-.312.873,3.11,3.11,0,0,1-.7.956,1.32,1.32,0,0,1-.9.386,1.136,1.136,0,0,1-.478-.1.846.846,0,0,1-.368-.34,1.7,1.7,0,0,1-.2-.478,2.594,2.594,0,0,1-.073-.662,9.035,9.035,0,0,1,.184-1.829,8.041,8.041,0,0,1,.46-1.535,3.473,3.473,0,0,1-.45-.147,1.321,1.321,0,0,1-.423-.276,1.385,1.385,0,0,1-.312-.46,1.714,1.714,0,0,1-.12-.68,6.131,6.131,0,0,0,.855.2,5.2,5.2,0,0,0,.873.092q.478-1.029.873-1.958a11.5,11.5,0,0,0,.634-1.994,2.434,2.434,0,0,1,.294,1.121,4.967,4.967,0,0,1-.23,1.489,10.521,10.521,0,0,1-.506,1.323,3.685,3.685,0,0,0,.506-.037,3.977,3.977,0,0,1,.542-.037" transform="translate(-945.345 -180.362)" fill="#fff"/>
          <path id="Path_115" data-name="Path 115" d="M1088.379,240.563a2.423,2.423,0,0,1,1.167.3,1.534,1.534,0,0,1,.726,1.13,3.694,3.694,0,0,1-.542,1.057,4.556,4.556,0,0,1-.91.965,3.2,3.2,0,0,1-.689.414,1.76,1.76,0,0,1-.708.156.967.967,0,0,1-.4-.092.645.645,0,0,1-.312-.4,2.515,2.515,0,0,0-.221.545,1.9,1.9,0,0,0-.073.49.364.364,0,0,0,.266.345,1.669,1.669,0,0,0,.634.109,2.3,2.3,0,0,0,.79-.155,4.917,4.917,0,0,0,.846-.41,6.253,6.253,0,0,0,1.112-.839,4.337,4.337,0,0,0,.836-1.058,3.391,3.391,0,0,1-.432,1.691,3.854,3.854,0,0,1-1,1.14,4.05,4.05,0,0,1-1.158.643,3.081,3.081,0,0,1-.937.2,1.876,1.876,0,0,1-.846-.175,1.537,1.537,0,0,1-.561-.46,1.818,1.818,0,0,1-.3-.662,3.277,3.277,0,0,1-.092-.781,3.664,3.664,0,0,1,.312-1.369,6.439,6.439,0,0,1,.791-1.406,5,5,0,0,1,.836-.91,2.082,2.082,0,0,1,.873-.469m-1.269,2.849a2.481,2.481,0,0,0,.634-.119,4.266,4.266,0,0,0,.8-.322,2.455,2.455,0,0,0,.6-.432.774.774,0,0,0,.248-.561q0-.221-.4-.221a1.38,1.38,0,0,0-.524.184,2.83,2.83,0,0,0-.469.349,4.033,4.033,0,0,0-.533.607q-.22.313-.349.515" transform="translate(-983.68 -217.985)" fill="#fff"/>
          <path id="Path_116" data-name="Path 116" d="M1140.466,238.3a.606.606,0,0,1,.23.331,2.254,2.254,0,0,1,.083.7v.294q0,.147-.018.331a4.506,4.506,0,0,1,.616-.993,3.726,3.726,0,0,1,.708-.662,2.674,2.674,0,0,1,1.507-.478,1.342,1.342,0,0,1,.845.4,12.7,12.7,0,0,0-1.213.579,4.335,4.335,0,0,0-1.627,1.535,9.289,9.289,0,0,0-.634,1.195,9.038,9.038,0,0,0-.414,1.186,3.92,3.92,0,0,0-.156,1q0,.515.257.515-.148.386-.46.386-.368,0-.469-.441a4.646,4.646,0,0,1-.1-1.029,8.608,8.608,0,0,1,.055-.965q.055-.487.147-1.039.11-.625.276-1.323t.368-1.526" transform="translate(-1032.66 -215.499)" fill="#fff"/>
          <path id="Path_117" data-name="Path 117" d="M1166.675,240.954a1.227,1.227,0,0,1,.551.11.92.92,0,0,1,.349.294,1.207,1.207,0,0,1,.184.414,2.012,2.012,0,0,1,.055.469,1.276,1.276,0,0,0-.294-.055,2.741,2.741,0,0,0-.882.156,3.616,3.616,0,0,0-.845.414,2.889,2.889,0,0,0-.7.625,1.089,1.089,0,0,0-.276.662.8.8,0,0,0,.23.423,7.154,7.154,0,0,0,.579.607q.4.386.855.781t.763.708a6.066,6.066,0,0,1-1.158.745,8.59,8.59,0,0,1-1.1.45,4.462,4.462,0,0,1-.781.2,3.929,3.929,0,0,1-.561.055.6.6,0,0,1-.524-.285,1.048,1.048,0,0,1-.193-.6,1.139,1.139,0,0,1,.129-.616.573.573,0,0,1,.331-.248.882.882,0,0,0-.018.2c0,.135.062.2.184.2q.257,0,.533-.018a2.526,2.526,0,0,0,.533-.092,4.35,4.35,0,0,0,1.011-.386,2.3,2.3,0,0,1-.552-.358,3.208,3.208,0,0,1-.423-.45,2.546,2.546,0,0,1-.515-1.581,2.3,2.3,0,0,1,.3-1.121,4.029,4.029,0,0,1,.744-.974,3.826,3.826,0,0,1,.744-.533,1.567,1.567,0,0,1,.745-.2" transform="translate(-1053.778 -218.339)" fill="#fff"/>
          <path id="Path_118" data-name="Path 118" d="M149.592,9.351a.188.188,0,0,1-.094-.025l-2.374-1.367a.188.188,0,0,1,0-.325l2.31-1.351a.187.187,0,0,1,.188,0l2.335,1.338a.188.188,0,0,1,0,.323l-2.271,1.379a.187.187,0,0,1-.1.027m-2-1.556,2,1.15,1.9-1.157-1.965-1.126Z" transform="translate(-133.23 -5.671)" fill="#fff"/>
          <path id="Path_119" data-name="Path 119" d="M149.184,25.507a.188.188,0,0,1-.094-.025l-2.374-1.364a.188.188,0,0,1-.094-.164l.015-2.657a.188.188,0,0,1,.279-.163l2.391,1.329a.188.188,0,0,1,.1.166l-.031,2.692a.187.187,0,0,1-.188.185M147,23.847,149,25l.026-2.26-2.016-1.121Z" transform="translate(-132.861 -19.129)" fill="#fff"/>
          <path id="Path_120" data-name="Path 120" d="M172.438,25.262a.188.188,0,0,1-.188-.188l.007-2.662a.188.188,0,0,1,.093-.161l2.29-1.345a.188.188,0,0,1,.283.161l.015,2.657a.188.188,0,0,1-.093.163l-2.311,1.35a.187.187,0,0,1-.095.026m.194-2.742-.006,2.227,1.934-1.13-.012-2.223Z" transform="translate(-156.083 -18.92)" fill="#fff"/>
          <path id="Path_121" data-name="Path 121" d="M154.161,34.5c.086.166.078.341-.019.392s-.245-.043-.332-.209-.078-.341.019-.392.245.043.332.209" transform="translate(-139.32 -31.063)" fill="#fff"/>
          <path id="Path_122" data-name="Path 122" d="M161.847,47.267c.086.166.078.341-.019.392s-.245-.043-.332-.209-.078-.341.019-.392.245.043.332.209" transform="translate(-146.284 -42.629)" fill="#fff"/>
          <path id="Path_123" data-name="Path 123" d="M178.662,50.845c-.086.166-.078.341.019.392s.245-.043.332-.209.078-.341-.019-.392-.245.043-.332.209" transform="translate(-161.839 -45.871)" fill="#fff"/>
          <path id="Path_124" data-name="Path 124" d="M184.491,41.091c-.086.166-.078.341.019.392s.245-.043.332-.209.078-.341-.019-.392-.245.043-.332.209" transform="translate(-167.121 -37.033)" fill="#fff"/>
          <path id="Path_125" data-name="Path 125" d="M189.717,32.583c-.086.166-.078.341.019.392s.245-.043.332-.209.078-.341-.019-.392-.245.043-.332.209" transform="translate(-171.857 -29.323)" fill="#fff"/>
          <path id="Path_126" data-name="Path 126" d="M161.832,67.77v6.9a.925.925,0,0,1-.385.812,1.721,1.721,0,0,1-1.006.269,1.655,1.655,0,0,1-.978-.272.926.926,0,0,1-.385-.809v-6.9l1.377.795Z" transform="translate(-144.148 -61.409)" fill="#fff"/>
        </g>
      </g>
    </g>
  </g>
</svg>
