<svg xmlns="http://www.w3.org/2000/svg" width="35.15" height="43.754" viewBox="0 0 35.15 43.754">
  <g id="map-pin" transform="translate(-2.5 -0.5)">
    <path id="Path_596" data-name="Path 596" d="M36.15,18.075c0,8.878-16.075,24.112-16.075,24.112S4,26.953,4,18.075a16.075,16.075,0,0,1,32.15,0Z" fill="rgba(255,255,255,0)" stroke="#003e69" stroke-width="3"/>
    <g id="Group_411" data-name="Group 411" transform="translate(10.29 7.441)">
      <path id="Path_598" data-name="Path 598" d="M151.907,18.143a.724.724,0,0,1-.36-.1l-9.124-5.253a.722.722,0,0,1,0-1.248l8.876-5.191a.72.72,0,0,1,.723,0l8.974,5.141a.721.721,0,0,1,.016,1.242l-8.727,5.3a.717.717,0,0,1-.374.1m-7.687-5.979,7.677,4.419,7.317-4.445-7.551-4.326Z" transform="translate(-141.914 -6.257)" fill="#003e69"/>
      <path id="Path_599" data-name="Path 599" d="M151.5,38.008a.723.723,0,0,1-.36-.1l-9.124-5.244a.722.722,0,0,1-.362-.629l.057-10.212a.721.721,0,0,1,1.072-.627l9.187,5.109a.722.722,0,0,1,.371.639L152.22,37.3a.72.72,0,0,1-.721.713m-8.4-6.381,7.694,4.422.1-8.686-7.746-4.308Z" transform="translate(-141.653 -15.752)" fill="#003e69"/>
      <path id="Path_600" data-name="Path 600" d="M168,37.723a.722.722,0,0,1-.721-.723l.027-10.232a.721.721,0,0,1,.356-.62l8.8-5.169a.721.721,0,0,1,1.087.618l.057,10.211a.721.721,0,0,1-.358.627l-8.883,5.189a.718.718,0,0,1-.364.1m.747-10.54-.022,8.559,7.435-4.343-.048-8.542Z" transform="translate(-158.037 -15.605)" fill="#003e69"/>
      <path id="Path_601" data-name="Path 601" d="M150.358,35.135c.331.637.3,1.311-.074,1.5s-.943-.166-1.275-.8-.3-1.311.074-1.5.943.166,1.275.8" transform="translate(-146.21 -24.172)" fill="#003e69"/>
      <path id="Path_602" data-name="Path 602" d="M158.044,47.9c.331.637.3,1.311-.074,1.5s-.943-.166-1.275-.8-.3-1.311.074-1.5.943.166,1.275.8" transform="translate(-151.124 -32.333)" fill="#003e69"/>
      <path id="Path_603" data-name="Path 603" d="M173.862,51.478c-.332.637-.3,1.311.074,1.5s.943-.166,1.275-.8.3-1.311-.074-1.5-.943.166-1.275.8" transform="translate(-162.098 -34.62)" fill="#003e69"/>
      <path id="Path_604" data-name="Path 604" d="M179.691,41.724c-.332.637-.3,1.311.074,1.5s.943-.166,1.275-.8.3-1.311-.074-1.5-.943.166-1.275.8" transform="translate(-165.824 -28.385)" fill="#003e69"/>
      <path id="Path_605" data-name="Path 605" d="M184.917,33.216c-.332.637-.3,1.311.074,1.5s.943-.166,1.275-.8.3-1.311-.074-1.5-.943.166-1.275.8" transform="translate(-169.165 -22.945)" fill="#003e69"/>
      <path id="Path_606" data-name="Path 606" d="M167.9,21.2c0,.419-.585.759-1.307.759s-1.307-.34-1.307-.759.585-.759,1.307-.759,1.307.34,1.307.759" transform="translate(-156.761 -15.327)" fill="#003e69"/>
    </g>
  </g>
</svg>
