<svg xmlns="http://www.w3.org/2000/svg" width="24.175" height="26.651" viewBox="0 0 24.175 26.651">
  <g id="notify" transform="translate(-1.5 -0.162)">
    <path id="Path_562" data-name="Path 562" d="M20.644,12.493c.678,6.267,3.342,8.161,3.342,8.161H3S6.5,18.167,6.5,9.461A7.721,7.721,0,0,1,8.546,4.185,6.781,6.781,0,0,1,13.493,2a6.568,6.568,0,0,1,1.166.1" fill="none" stroke="#fff" stroke-linecap="round" stroke-linejoin="round" stroke-width="3"/>
    <path id="Path_563" data-name="Path 563" d="M20.336,10.672A4.336,4.336,0,1,0,16,6.336,4.336,4.336,0,0,0,20.336,10.672Z" transform="translate(1.003 -1.838)" fill="#fff"/>
    <path id="Path_564" data-name="Path 564" d="M14.3,21a2.332,2.332,0,0,1-4.034,0" transform="translate(1.206 3.151)" fill="none" stroke="#fff" stroke-linecap="round" stroke-linejoin="round" stroke-width="3"/>
  </g>
</svg>
