<svg xmlns="http://www.w3.org/2000/svg" width="25.24" height="20.975" viewBox="0 0 25.24 20.975">
  <g id="pw" transform="translate(-2 -5)">
    <path id="Path_225" data-name="Path 225" d="M25.943,14.922V8.549A2.549,2.549,0,0,0,23.394,6H5.549A2.549,2.549,0,0,0,3,8.549V16.2a2.549,2.549,0,0,0,2.549,2.549h8.922" fill="none" stroke="#003e69" stroke-linecap="round" stroke-linejoin="round" stroke-width="2"/>
    <path id="Path_226" data-name="Path 226" d="M22.549,17.841c.629.387.591,1.329-.058,1.4l-3.271.371-1.467,2.947c-.291.584-1.189.3-1.338-.426l-1.6-7.8a.611.611,0,0,1,.956-.67Z" transform="translate(3.239 2.074)" fill="none" stroke="#003e69" stroke-width="2" fill-rule="evenodd"/>
    <path id="Path_227" data-name="Path 227" d="M12,11.013,12.013,11" transform="translate(2.471 1.373)" fill="none" stroke="#003e69" stroke-linecap="round" stroke-linejoin="round" stroke-width="2"/>
    <path id="Path_228" data-name="Path 228" d="M16,11.013,16.013,11" transform="translate(3.57 1.373)" fill="none" stroke="#003e69" stroke-linecap="round" stroke-linejoin="round" stroke-width="2"/>
    <path id="Path_229" data-name="Path 229" d="M8,11.013,8.013,11" transform="translate(1.373 1.373)" fill="none" stroke="#003e69" stroke-linecap="round" stroke-linejoin="round" stroke-width="2"/>
  </g>
</svg>
