<svg xmlns="http://www.w3.org/2000/svg" xmlns:xlink="http://www.w3.org/1999/xlink" width="14" height="14" viewBox="0 0 14 14">
  <defs>
    <clipPath id="clip-path">
      <rect id="Rectangle_87" data-name="Rectangle 87" width="14" height="14" transform="translate(0 0)" fill="#003e69" stroke="#003e69" stroke-width="0.5"/>
    </clipPath>
  </defs>
  <g id="save-form" transform="translate(0 0)">
    <g id="Group_382" data-name="Group 382" transform="translate(0 0)" clip-path="url(#clip-path)">
      <path id="Path_577" data-name="Path 577" d="M14,4.387v7.831A1.777,1.777,0,0,1,12.219,14H1.8A1.817,1.817,0,0,1,0,12.135l0-10.347A1.835,1.835,0,0,1,1.867,0H9.784A1.7,1.7,0,0,1,10.938.44c.93.967,1.846,1.986,2.7,3A1.444,1.444,0,0,1,14,4.387m-2.857,8.537H11.8c.081,0,.33-.029.428-.042.611-.086.676-.686.7-1.183.109-2.288-.086-4.663,0-6.96a1.1,1.1,0,0,0-.2-.6c-.631-.889-1.675-1.711-2.335-2.606a1.053,1.053,0,0,0-.873-.438c-2.375.089-4.83-.113-7.2,0-.564.027-1.059.082-1.188.728-.064,3.444-.057,6.9,0,10.348a.833.833,0,0,0,.664.714c.1.014.347.042.428.042h.655c.044-.977-.058-2,0-2.976.085-1.456.925-2,2.3-2.067,1.127-.051,2.5-.049,3.633,0,1.392.06,2.247.585,2.336,2.067.058.971-.046,2,0,2.976m-1.109,0V9.748a.942.942,0,0,0-.372-.6,1.292,1.292,0,0,0-.618-.155c-1.429-.09-3,.037-4.43.044a.862.862,0,0,0-.63.714v3.176Z" transform="translate(0 0)" fill="#003e69" stroke="#003e69" stroke-width="0.5"/>
      <path id="Path_578" data-name="Path 578" d="M36.814,24.284l4.493-.005a.557.557,0,0,1-.1,1.106c-1.349.137-2.925-.1-4.3,0a.555.555,0,0,1-.1-1.1" transform="translate(-32.066 -21.402)" fill="#003e69" stroke="#003e69" stroke-width="0.5"/>
    </g>
  </g>
</svg>
