<svg xmlns="http://www.w3.org/2000/svg" xmlns:xlink="http://www.w3.org/1999/xlink" width="23.611" height="23.603" viewBox="0 0 23.611 23.603">
  <defs>
    <clipPath id="clip-path">
      <rect id="Rectangle_103" data-name="Rectangle 103" width="23.611" height="23.603" fill="#003e69"/>
    </clipPath>
  </defs>
  <g id="search-filter" transform="translate(0 0)">
    <g id="Group_428" data-name="Group 428" transform="translate(0 0)" clip-path="url(#clip-path)">
      <path id="Path_607" data-name="Path 607" d="M.007,38.7a1.29,1.29,0,0,1,.924-1.035l4.035-.021a3.538,3.538,0,0,1,6.666.01l10.974,0a1.2,1.2,0,0,1-.111,2.373l-10.862,0a3.541,3.541,0,0,1-6.669.011L1.043,40.01A1.313,1.313,0,0,1,.007,38.976c.008-.089-.013-.191,0-.276" transform="translate(-0.002 -18.777)" fill="#003e69"/>
      <path id="Path_608" data-name="Path 608" d="M.006,21.1A1.3,1.3,0,0,1,1.248,20l11.911-.01c.1-.035.312-.567.4-.7a3.519,3.519,0,0,1,6.267.705c.105.068,2.148-.023,2.505.005a1.218,1.218,0,1,1,0,2.432c-.358.029-2.4-.062-2.505.006a3.52,3.52,0,0,1-6.267.705c-.087-.137-.3-.669-.4-.7l-11.911-.01a1.3,1.3,0,0,1-1.243-1.1,1.089,1.089,0,0,1,0-.221" transform="translate(0 -9.399)" fill="#003e69"/>
      <path id="Path_609" data-name="Path 609" d="M10.443.079a.556.556,0,0,1,.386,0,3.225,3.225,0,0,1,1.784.562,4.191,4.191,0,0,1,1.4,1.749l8.438.005a1.193,1.193,0,0,1,.111,2.377l-8.549.005a8.5,8.5,0,0,1-.588,1.013,3.545,3.545,0,0,1-5.541.024c-.253-.322-.375-.711-.621-1.035L.983,4.765A1.267,1.267,0,0,1,.012,3.721V3.445A1.151,1.151,0,0,1,1.028,2.3L7.252,2.29A3.229,3.229,0,0,1,10.443.079" transform="translate(-0.006 -0.024)" fill="#003e69"/>
      <path id="Path_610" data-name="Path 610" d="M22.684,0V.055c-.126-.005-.26-.005-.386,0V0Z" transform="translate(-11.862 0)" fill="#003e69"/>
    </g>
  </g>
</svg>
