<svg xmlns="http://www.w3.org/2000/svg" width="37.085" height="37.085" viewBox="0 0 37.085 37.085">
  <g id="subscriptions" transform="translate(-0.5 -0.5)">
    <path id="Path_570" data-name="Path 570" d="M14.113,19.226A5.113,5.113,0,1,0,9,14.113,5.113,5.113,0,0,0,14.113,19.226Z" transform="translate(4.93 4.93)" fill="none" stroke="#003e69" stroke-linecap="round" stroke-linejoin="round" stroke-width="3"/>
    <path id="Path_571" data-name="Path 571" d="M32.033,16.308l-1.871-4.517,2.514-2.974L29.268,5.409,26.311,7.936,21.7,6.039,20.637,2H17.306L16.229,6.092l-4.507,1.9-2.9-2.584L5.409,8.817l2.477,3.049L6.043,16.395,2,17.338v3.409l4.092,1.117,1.9,4.506-2.583,2.9,3.409,3.409,3.053-2.488,4.441,1.827,1.028,4.069h3.409l1.03-4.068,4.517-1.871c.753.538,2.974,2.53,2.974,2.53l3.409-3.409-2.529-2.984,1.871-4.519,4.066-1.058v-3.37Z" fill="none" stroke="#003e69" stroke-linecap="round" stroke-linejoin="round" stroke-width="3"/>
  </g>
</svg>
