<svg xmlns="http://www.w3.org/2000/svg" xmlns:xlink="http://www.w3.org/1999/xlink" width="16.763" height="9.597" viewBox="0 0 16.763 9.597">
  <defs>
    <clipPath id="clip-path">
      <rect id="Rectangle_90" data-name="Rectangle 90" width="16.763" height="9.597" transform="translate(0 0)" fill="#003e69"/>
    </clipPath>
  </defs>
  <g id="tab-arw-1" transform="translate(16.763 9.597) rotate(180)">
    <g id="Group_390" data-name="Group 390" clip-path="url(#clip-path)">
      <path id="Path_582" data-name="Path 582" d="M.894.025c4.9-.033,10.047-.033,14.957,0,.857-.154,1.12.892.746,1.489L9.261,9.293A1.456,1.456,0,0,1,7.3,9.129c-1.8-1.9-3.6-3.821-5.389-5.736C1.359,2.8.814,2.2.27,1.6A.818.818,0,0,1,0,.953C0,.929,0,.9,0,.879A.76.76,0,0,1,.894.025" transform="translate(0 0)" fill="#003e69"/>
    </g>
  </g>
</svg>
