<svg xmlns="http://www.w3.org/2000/svg" width="22" height="20" viewBox="0 0 22 20">
  <g id="take-pic" transform="translate(1 1)">
    <path id="Path_538" data-name="Path 538" d="M2,19V9A2,2,0,0,1,4,7h.5a2,2,0,0,0,1.6-.8L8.32,3.24A.6.6,0,0,1,8.8,3h6.4a.6.6,0,0,1,.48.24L17.9,6.2a2,2,0,0,0,1.6.8H20a2,2,0,0,1,2,2V19a2,2,0,0,1-2,2H4A2,2,0,0,1,2,19Z" transform="translate(-2 -3)" fill="none" stroke="#003e69" stroke-linecap="round" stroke-linejoin="round" stroke-width="2"/>
    <path id="Path_539" data-name="Path 539" d="M12,17a4,4,0,1,0-4-4A4,4,0,0,0,12,17Z" transform="translate(-2 -3)" fill="none" stroke="#003e69" stroke-linecap="round" stroke-linejoin="round" stroke-width="2"/>
  </g>
</svg>
