<svg xmlns="http://www.w3.org/2000/svg" width="27.506" height="27.193" viewBox="0 0 27.506 27.193">
  <g id="upload-photo" transform="translate(1.313 1)">
    <path id="Path_541" data-name="Path 541" d="M16.259,26.867H3.8a.8.8,0,0,1-.8-.8V3.8A.8.8,0,0,1,3.8,3H26.071a.8.8,0,0,1,.8.8V16.259" transform="translate(-3 -3)" fill="none" stroke="#fff" stroke-linecap="round" stroke-linejoin="round" stroke-width="2"/>
    <path id="Path_542" data-name="Path 542" d="M3,16.978,12.282,13l7.293,3.315" transform="translate(-3 0.259)" fill="none" stroke="#fff" stroke-linecap="round" stroke-linejoin="round" stroke-width="2"/>
    <path id="Path_543" data-name="Path 543" d="M16.652,11.3A2.652,2.652,0,1,1,19.3,8.652,2.652,2.652,0,0,1,16.652,11.3Z" transform="translate(0.585 -2.022)" fill="none" stroke="#fff" stroke-linecap="round" stroke-linejoin="round" stroke-width="2"/>
    <path id="Path_544" data-name="Path 544" d="M16,19.978h3.978m3.978,0H19.978m0,0V16m0,3.978v3.978" transform="translate(1.237 1.237)" fill="none" stroke="#fff" stroke-linecap="round" stroke-linejoin="round" stroke-width="2"/>
  </g>
</svg>
