<svg xmlns="http://www.w3.org/2000/svg" xmlns:xlink="http://www.w3.org/1999/xlink" width="65" height="35" viewBox="0 0 65 35">
  <defs>
    <clipPath id="clip-path">
      <rect id="Rectangle_94" data-name="Rectangle 94" width="45.612" height="14.722" fill="none"/>
    </clipPath>
  </defs>
  <g id="visa" transform="translate(-64 -395)">
    <g id="Group_409" data-name="Group 409">
      <rect id="Rectangle_96" data-name="Rectangle 96" width="65" height="35" rx="6" transform="translate(64 395)" fill="#fff"/>
      <g id="Group_407" data-name="Group 407" transform="translate(74 405)">
        <path id="Path_586" data-name="Path 586" d="M54.254.7,51.979,14.98h3.76L58.014.7Z" transform="translate(-35.851 -0.481)" fill="#004c9d"/>
        <g id="Group_406" data-name="Group 406" transform="translate(0 0)">
          <g id="Group_405" data-name="Group 405" clip-path="url(#clip-path)">
            <path id="Path_587" data-name="Path 587" d="M9,7.909c-.009.225-.027.277-.2.1l-.331-.231a12.077,12.077,0,0,0-4.3-4.564l-.214-.326A14.376,14.376,0,0,0,0,1.31v-.3H6.382a1.684,1.684,0,0,1,1.257.719c.429.7,1.152,5.046,1.365,6.176" transform="translate(0 -0.699)" fill="#f79908"/>
            <path id="Path_588" data-name="Path 588" d="M17.9,8.38l.395,1.969L21.76.7h4.056L19.731,14.98c-1.09-.1-2.41.135-3.468.006-.109-.013-.22.006-.293-.1L12.756,2.667A11.793,11.793,0,0,1,17.6,7.789a1.139,1.139,0,0,1,.3.591" transform="translate(-8.798 -0.481)" fill="#004c9d"/>
            <path id="Path_589" data-name="Path 589" d="M28.678,23.927c-.183-.142-.2-.39-.3-.591l.2-.1c.042.221.045.467.1.689" transform="translate(-19.575 -16.028)" fill="#d69837"/>
            <path id="Path_590" data-name="Path 590" d="M117.535,14.9h-3.463a15.008,15.008,0,0,0-.366-1.948c-.056-.127-.026-.11-.174-.127-1.422-.153-3.139.117-4.593.018l-.7,2.057h-3.957l5.755-13.528c.878-1.227,3.22-.644,4.542-.712Zm-4.452-5.122L111.9,4.751l-1.782,5.024Z" transform="translate(-71.923 -0.398)" fill="#004c9d"/>
            <path id="Path_591" data-name="Path 591" d="M81.891,3.664a8.115,8.115,0,0,0-3.709-.59c-1.157.115-2.168.923-1.041,1.921,1.451,1.284,4.377,1.767,4.652,4.234.6,5.424-6.8,6.489-10.545,4.68.2-.945.233-1.964.458-2.9.027-.113.034-.184.145-.252,1.233.808,4.148,1.313,5.425.577,1.409-.813.307-1.863-.6-2.429-1.5-.936-3.655-1.6-3.89-3.712C72.247.318,78.865-.9,82.344.606c.142.207-.487,2.587-.453,3.058" transform="translate(-49.143 0)" fill="#004c9d"/>
          </g>
        </g>
      </g>
    </g>
  </g>
</svg>
