<svg id="dice-type" xmlns="http://www.w3.org/2000/svg" xmlns:xlink="http://www.w3.org/1999/xlink" width="36.366" height="40.761" viewBox="0 0 36.366 40.761">
  <defs>
    <clipPath id="clip-path">
      <rect id="Rectangle_79" data-name="Rectangle 79" width="36.366" height="40.761" fill="#fff"/>
    </clipPath>
  </defs>
  <g id="Group_369" data-name="Group 369" clip-path="url(#clip-path)">
    <path id="Path_565" data-name="Path 565" d="M2.194,22.359c0-2.644.015-5.289,0-7.933a3.746,3.746,0,0,1,1.932-3.533Q9.635,7.7,15.153,4.506c1.039-.6,2.068-1.22,3.12-1.8a3.7,3.7,0,0,1,3.788,0c4.6,2.631,9.179,5.316,13.784,7.948a4.2,4.2,0,0,1,2.312,4.055c-.064,5.167-.046,10.336,0,15.5a4.063,4.063,0,0,1-2.176,3.848q-6.861,3.957-13.722,7.913a4.166,4.166,0,0,1-4.5-.17c-3.666-2.144-7.347-4.263-11.023-6.389-.789-.456-1.584-.9-2.377-1.352a3.932,3.932,0,0,1-2.173-3.7c.027-2.668.007-5.337.008-8m35.571.291h.042q0-1.477,0-2.955c0-.985.024-1.971,0-2.955-.063-2.218-1.525-3.154-3.335-2.118-3.476,1.99-6.953,3.98-10.4,6.026a6.941,6.941,0,0,0-3.489,6.1c-.1,3.865-.023,7.735-.02,11.6a3.292,3.292,0,0,0,.028.431c.281,2.116,1.532,2.777,3.389,1.726,3.381-1.915,6.739-3.871,10.1-5.814a6.986,6.986,0,0,0,3.644-5.7c.172-2.1.036-4.224.036-6.337M20.609,3.178a7.427,7.427,0,0,0-3.9.879C13.314,6,9.913,7.936,6.536,9.91c-2.081,1.216-2.08,2.9,0,4.118,3.392,1.991,6.783,3.987,10.225,5.889a6.8,6.8,0,0,0,6.821-.006c2.678-1.451,5.289-3.025,7.926-4.55.914-.528,1.843-1.035,2.723-1.615a1.975,1.975,0,0,0,.137-3.459,5.68,5.68,0,0,0-.723-.468c-3.053-1.764-6.117-3.509-9.158-5.292a7.979,7.979,0,0,0-3.879-1.348m-.9,29.308h-.019c0-2.115.1-4.237-.028-6.344a6.574,6.574,0,0,0-3.247-5.4c-3.469-2.1-7.011-4.086-10.529-6.108-1.661-.955-3-.3-3.294,1.587a4.272,4.272,0,0,0-.057.644c0,3.846-.07,7.694.015,11.538a7.091,7.091,0,0,0,3.692,6.279Q9.818,36.77,13.4,38.845c1.164.67,2.322,1.363,3.537,1.929a1.867,1.867,0,0,0,2.738-1.654c.034-.334.031-.672.032-1.009q0-2.813,0-5.625" transform="translate(-1.989 -1.99)" fill="#fff"/>
    <path id="Path_566" data-name="Path 566" d="M18.229,40.762a5.06,5.06,0,0,1-2.558-.777c-2.814-1.646-5.684-3.3-8.46-4.908L4.648,33.6c-.633-.366-1.28-.732-1.907-1.086l-.469-.265A4.106,4.106,0,0,1,0,28.372c.019-1.86.015-3.751.011-5.58q0-1.211,0-2.423,0-1.142,0-2.285c0-1.851.006-3.765-.008-5.646A3.961,3.961,0,0,1,2.033,8.732q4.248-2.463,8.5-4.921l2.534-1.466q.455-.263.909-.53C14.7,1.393,15.442.956,16.189.547a3.9,3.9,0,0,1,3.981,0c2.311,1.32,4.652,2.677,6.916,3.988,2.249,1.3,4.574,2.649,6.868,3.96a4.406,4.406,0,0,1,2.411,4.228c-.071,5.68-.038,11.267,0,15.5a4.262,4.262,0,0,1-2.275,4.02l-4.728,2.725c-2.949,1.7-6,3.456-8.995,5.188a4.219,4.219,0,0,1-2.137.606m-4.593-2.42q1.12.651,2.234,1.3a3.947,3.947,0,0,0,4.3.169c1.895-1.095,3.81-2.2,5.709-3.294-1.261.726-2.528,1.451-3.789,2.165a2.629,2.629,0,0,1-2.454.339,2.688,2.688,0,0,1-1.228-2.21,3.486,3.486,0,0,1-.03-.456c0-1.136-.008-2.291-.015-3.409-.016-2.688-.033-5.466.035-8.2a7.141,7.141,0,0,1,3.585-6.26c3.488-2.072,7-4.083,10.4-6.028a2.442,2.442,0,0,1,2.439-.209,2.483,2.483,0,0,1,1.135,1.877q.007-.7.015-1.412a4,4,0,0,0-2.212-3.881l-1.39-.8q.069.05.135.1A2.409,2.409,0,0,1,33.531,10.1a2.362,2.362,0,0,1-1.178,1.82c-.681.449-1.4.86-2.1,1.256q-.319.182-.637.365c-.745.431-1.5.873-2.23,1.3-1.857,1.086-3.777,2.21-5.7,3.253a7,7,0,0,1-7.01.005c-3.26-1.8-6.526-3.718-9.685-5.572l-.545-.32A2.766,2.766,0,0,1,2.79,9.975a2.427,2.427,0,0,1,1.155-1.9l-1.714.994A3.548,3.548,0,0,0,.4,12.435q.007.893.009,1.792l0-.031a2.522,2.522,0,0,1,1.247-2.009,2.482,2.482,0,0,1,2.34.28q1.288.74,2.579,1.476c2.62,1.5,5.329,3.044,7.954,4.634a6.733,6.733,0,0,1,3.342,5.561c.091,1.47.069,2.968.047,4.417-.008.571-.017,1.16-.019,1.742h.019v1.623q0,2.1,0,4.2v.068c0,.314,0,.639-.033.96a2.263,2.263,0,0,1-1.072,1.8,2.074,2.074,0,0,1-1.945.017c-.415-.194-.826-.4-1.231-.621M33.877,12.408a2.662,2.662,0,0,0-1.3.395c-3.4,1.944-6.909,3.954-10.393,6.024a6.763,6.763,0,0,0-3.392,5.931c-.068,2.727-.051,5.5-.035,8.187.007,1.118.014,2.274.015,3.411a3.078,3.078,0,0,0,.027.4,2.331,2.331,0,0,0,1.013,1.909,2.271,2.271,0,0,0,2.084-.329c2.563-1.452,5.156-2.952,7.664-4.4L32,32.528a6.827,6.827,0,0,0,3.546-5.548,43.269,43.269,0,0,0,.061-4.37c-.013-.64-.026-1.3-.026-1.951v-.2h.042V17.7c0-.311,0-.622.005-.933.005-.662.011-1.346-.008-2.016a2.411,2.411,0,0,0-.99-2.16,1.514,1.514,0,0,0-.75-.188M2.481,12.4a1.493,1.493,0,0,0-.653.143A2.122,2.122,0,0,0,.8,14.256a4.037,4.037,0,0,0-.055.614c0,1.1-.008,2.223-.014,3.307C.715,20.875.7,23.664.76,26.4a6.87,6.87,0,0,0,3.595,6.114l.165.1c2.288,1.339,4.655,2.724,6.992,4.069l.5.288c.978.566,1.99,1.152,3.024,1.634a1.691,1.691,0,0,0,1.584,0,1.876,1.876,0,0,0,.875-1.493c.03-.3.031-.616.031-.921v-.068q0-2.1,0-4.2V30.693h-.019v-.2c0-.649.01-1.308.019-1.945.021-1.441.043-2.932-.046-4.387a6.354,6.354,0,0,0-3.153-5.249C11.706,17.327,9,15.781,6.381,14.286Q5.09,13.549,3.8,12.809a2.7,2.7,0,0,0-1.32-.41M35.957,26.745q-.009.134-.02.268a7.206,7.206,0,0,1-3.742,5.857l-2.439,1.41-2.574,1.488,1.981-1.142L33.891,31.9a3.851,3.851,0,0,0,2.078-3.675q-.006-.715-.012-1.48M.4,27.066q0,.656-.01,1.309A3.74,3.74,0,0,0,2.467,31.9l.469.265c.42.237.85.48,1.279.725l-.059-.035A7.285,7.285,0,0,1,.4,27.066m-.2-6.7h0ZM18.716,1.384h-.1a7.27,7.27,0,0,0-3.805.853l-2.63,1.507C9.71,5.161,7.15,6.627,4.646,8.09,3.7,8.641,3.184,9.31,3.184,9.975s.519,1.339,1.464,1.893l.545.32c3.156,1.852,6.42,3.768,9.676,5.567a6.62,6.62,0,0,0,6.632-.007c1.918-1.04,3.836-2.161,5.69-3.246.731-.427,1.486-.87,2.232-1.3q.319-.184.639-.366c.69-.394,1.4-.8,2.074-1.243a1.983,1.983,0,0,0,1-1.51,2.03,2.03,0,0,0-.88-1.631,5.55,5.55,0,0,0-.7-.451q-1.493-.862-2.988-1.721c-2.026-1.165-4.12-2.37-6.171-3.572a7.9,7.9,0,0,0-3.683-1.322M18.2.4a3.775,3.775,0,0,0-1.822.5c-.638.349-1.277.72-1.9,1.084l.14-.081a7.631,7.631,0,0,1,4-.905,6.694,6.694,0,0,1,3.049.867L19.974.888A3.547,3.547,0,0,0,18.2.4" transform="translate(0 0)" fill="#fff"/>
    <path id="Path_567" data-name="Path 567" d="M287.743,257.574a3.928,3.928,0,0,1,1.715-3.172,1.08,1.08,0,0,1,1.824.823,3.94,3.94,0,0,1-1.979,3.511c-.922.4-1.572-.11-1.56-1.162" transform="translate(-261.798 -231.205)" fill="#fff"/>
    <path id="Path_568" data-name="Path 568" d="M254.591,97.418a3.931,3.931,0,0,1,3.156.051c.093.042.184.086.273.135a.94.94,0,0,1,.02,1.724,3.72,3.72,0,0,1-3.7-.094.943.943,0,0,1,.063-1.73q.09-.046.182-.085" transform="translate(-230.924 -88.356)" fill="#fff"/>
    <path id="Path_569" data-name="Path 569" d="M100.283,95.708a3.926,3.926,0,0,1-3.427-.125q-.1-.052-.19-.11c-.69-.432-.63-1.078.017-1.585a3.509,3.509,0,0,1,3.964.2.933.933,0,0,1-.182,1.53q-.09.047-.183.088" transform="translate(-87.501 -84.95)" fill="#fff"/>
    <path id="Path_570" data-name="Path 570" d="M177.622,96.114a3.766,3.766,0,0,1-.434-.176c-1-.487-1-1.352-.018-1.885a3.306,3.306,0,0,1,3.491.121c.926.565.89,1.37-.093,1.828l-.085.038a4,4,0,0,1-2.86.074" transform="translate(-160.528 -85.171)" fill="#fff"/>
    <path id="Path_571" data-name="Path 571" d="M123.608,332.544c-.012,1.334-.791,1.8-1.776,1.231a3.84,3.84,0,0,1-1.936-2.956,1.6,1.6,0,0,1,.515-1.285,1.486,1.486,0,0,1,1.308.085,3.805,3.805,0,0,1,1.889,2.925" transform="translate(-109.079 -299.714)" fill="#fff"/>
    <path id="Path_572" data-name="Path 572" d="M80.36,257.331c.009,1.092-.8,1.589-1.736,1.057a3.707,3.707,0,0,1-1.951-3.087,1.462,1.462,0,0,1,.46-1.181,1.561,1.561,0,0,1,1.328.074,3.925,3.925,0,0,1,1.9,3.137" transform="translate(-69.756 -231.101)" fill="#fff"/>
    <path id="Path_573" data-name="Path 573" d="M124.726,233.818c.038,1.535-.689,2.036-1.689,1.448a3.668,3.668,0,0,1-1.956-3.351,1.016,1.016,0,0,1,1.584-.95,3.655,3.655,0,0,1,2.061,2.853" transform="translate(-110.163 -209.991)" fill="#fff"/>
    <path id="Path_574" data-name="Path 574" d="M35.927,284.806c-.007-1.427.72-1.91,1.7-1.36a3.525,3.525,0,0,1,1.943,3.223c0,1.082-.75,1.524-1.7,1a3.794,3.794,0,0,1-1.946-2.861" transform="translate(-32.688 -257.687)" fill="#fff"/>
    <path id="Path_575" data-name="Path 575" d="M39.087,189.327c.005-1.482.762-1.97,1.759-1.374a3.608,3.608,0,0,1,1.875,3.272,1.021,1.021,0,0,1-1.629.966,3.675,3.675,0,0,1-2.006-2.863" transform="translate(-35.563 -170.78)" fill="#fff"/>
  </g>
</svg>
